<svg xmlns="http://www.w3.org/2000/svg" xmlns:xlink="http://www.w3.org/1999/xlink" viewBox="0 0 578.24 1892.61"><defs><style>.cls-1{fill:#b96342;}.cls-2{fill:#d5a18e;}.cls-3{fill:#c47c60;}.cls-4{fill:#ffe756;}.cls-5{fill:url(#linear-gradient);}.cls-6{fill:url(#linear-gradient-2);}.cls-7{fill:url(#linear-gradient-3);}.cls-8{fill:url(#linear-gradient-4);}.cls-9{fill:#254059;}.cls-10{fill:url(#linear-gradient-5);}.cls-11{fill:url(#linear-gradient-6);}.cls-12{fill:#ff333a;}.cls-13{fill:url(#linear-gradient-7);}.cls-14{fill:#0a1a33;}.cls-15{fill:url(#linear-gradient-8);}.cls-16{fill:#324b63;}.cls-17{fill:#89add3;}.cls-18{fill:#ff676c;}.cls-19{fill:url(#linear-gradient-9);}.cls-20{fill:url(#linear-gradient-10);}.cls-21{fill:url(#linear-gradient-11);}.cls-22{fill:url(#linear-gradient-12);}.cls-23{fill:#ffbdaf;}.cls-24{fill:#ff6066;}.cls-25{fill:url(#radial-gradient);}.cls-26{fill:url(#radial-gradient-2);}.cls-27{fill:url(#linear-gradient-13);}.cls-28{fill:#fff;}.cls-29{fill:url(#linear-gradient-14);}.cls-30{fill:#ffabae;}.cls-31{fill:#ff6490;}</style><linearGradient id="linear-gradient" x1="29.68" y1="402.97" x2="43.75" y2="396.94" gradientTransform="matrix(0.98, 0.21, -0.21, 0.98, 160.26, 691.65)" gradientUnits="userSpaceOnUse"><stop offset="0" stop-color="#ffbdaf"/><stop offset="0.82" stop-color="#ff6066"/></linearGradient><linearGradient id="linear-gradient-2" x1="112.76" y1="1095.53" x2="127.84" y2="1089.07" gradientTransform="matrix(1, 0, 0, 1, 0, 0)" xlink:href="#linear-gradient"/><linearGradient id="linear-gradient-3" x1="65.49" y1="430.22" x2="70.28" y2="413.11" gradientTransform="translate(155.47 651.67) rotate(11.71)" xlink:href="#linear-gradient"/><linearGradient id="linear-gradient-4" x1="143.67" y1="1031.08" x2="156.7" y2="984.62" gradientTransform="matrix(1, 0, 0, 1, 0, 0)" xlink:href="#linear-gradient"/><linearGradient id="linear-gradient-5" x1="430.1" y1="1362.84" x2="484.38" y2="1032.97" gradientTransform="matrix(1, 0, 0, 1, 0, 0)" xlink:href="#linear-gradient"/><linearGradient id="linear-gradient-6" x1="260.1" y1="1334.87" x2="314.39" y2="1005" gradientTransform="matrix(1, 0, 0, 1, 0, 0)" xlink:href="#linear-gradient"/><linearGradient id="linear-gradient-7" x1="-3282.9" y1="263.34" x2="-3319.32" y2="96.54" gradientTransform="matrix(-0.99, -0.1, -0.1, 0.99, -2855.12, -148.14)" xlink:href="#linear-gradient"/><linearGradient id="linear-gradient-8" x1="501.28" y1="1097.34" x2="519.9" y2="1030.92" gradientTransform="matrix(1, 0, 0, 1, 0, 0)" xlink:href="#linear-gradient"/><linearGradient id="linear-gradient-9" x1="-1853.14" y1="239.49" x2="-1906.18" y2="290.09" gradientTransform="translate(2382.62 -29.31) rotate(-0.49)" xlink:href="#linear-gradient"/><linearGradient id="linear-gradient-10" x1="-1842.44" y1="202.55" x2="-1889.88" y2="309.3" gradientTransform="translate(2382.62 -29.31) rotate(-0.49)" xlink:href="#linear-gradient"/><linearGradient id="linear-gradient-11" x1="-2112.35" y1="226.7" x2="-2083.51" y2="259.76" gradientTransform="translate(2382.62 -29.31) rotate(-0.49)" xlink:href="#linear-gradient"/><linearGradient id="linear-gradient-12" x1="-2123.54" y1="197.19" x2="-2096.24" y2="254.94" gradientTransform="translate(2382.62 -29.31) rotate(-0.49)" xlink:href="#linear-gradient"/><radialGradient id="radial-gradient" cx="6739.04" cy="265.52" r="32.02" gradientTransform="matrix(-0.19, -0.98, -0.98, 0.19, 2022.27, 6816.15)" gradientUnits="userSpaceOnUse"><stop offset="0" stop-color="#ff8084"/><stop offset="0.42" stop-color="#ffa19a"/><stop offset="0.69" stop-color="#ffb8a9"/><stop offset="1" stop-color="#ffbdaf"/></radialGradient><radialGradient id="radial-gradient-2" cx="6906.31" cy="254.78" r="27.83" gradientTransform="matrix(-0.71, -0.7, -0.7, 0.71, 5406.19, 4903.7)" xlink:href="#radial-gradient"/><linearGradient id="linear-gradient-13" x1="-3386.42" y1="986.49" x2="-3388.33" y2="912.83" gradientTransform="matrix(-1, 0.09, 0.09, 1, -3078.33, -317.41)" xlink:href="#linear-gradient"/><linearGradient id="linear-gradient-14" x1="-3258.94" y1="18.35" x2="-3252.28" y2="79.81" gradientTransform="matrix(-0.99, -0.1, -0.1, 0.99, -2855.12, -148.14)" gradientUnits="userSpaceOnUse"><stop offset="0" stop-color="#ffbdaf"/><stop offset="1" stop-color="#ff6066"/></linearGradient></defs><title>Asset 3</title><g id="Layer_2" data-name="Layer 2"><g id="Objects"><g id="Office_Staff" data-name="Office Staff"><path class="cls-1" d="M78,1478.43c1.3,2,3.26,9.78,13.68,9.78s79.49-2,79.49-2l21.51-344s-74.94-8.47-78.19-7.17S78,1478.43,78,1478.43Z"/><path class="cls-2" d="M38.85,1105.08s-50.17,197.43-36.49,313.41c0,0,74.28,67.76,81.45,69.07s24.11-327.75,41.7-342.74Z"/><polygon class="cls-3" points="38.85 1105.08 118.17 1106.03 192.63 1142.22 125.51 1144.82 38.85 1105.08"/><path class="cls-4" d="M88.45,1112c0-1.43,1.92-2.4,2.89-2.89,4.73-2.44,12.14-.49,13.4,3.68a4.82,4.82,0,0,1-1,4.73C99.91,1121,88.31,1115.61,88.45,1112Z"/><path class="cls-4" d="M130.38,1131.14c.19-1.31,2.16-1.94,5.12-2.89,11.26-3.63,20.7,2.45,22.9,4.91a3.29,3.29,0,0,1,1,2c.07,1.89-2.06,3.37-2.77,3.86C150.5,1143.28,129.73,1135.59,130.38,1131.14Z"/><path class="cls-1" d="M102,1077.32c-.68-.76-8.61,17.39-9.63,33.75,0,0-.77,4.34,9.2,4.6l10-31.7Z"/><path class="cls-5" d="M96.94,1072.9s-.65,24.91,5.45,33.11,15,1.91,15.78,0,24.86-25.78,16.09-28-14-1.7-19.65,6.68.07-14.39.07-14.39Z"/><path class="cls-6" d="M102,1077.32s5,26.2,13.28,33.38,16.16-1.43,16.52-3.59,20.1-32.66,10.41-33-15.08,1.43-19,11.48S120,1070.5,120,1070.5Z"/><path class="cls-7" d="M110.63,1082.29c2.59,3.94,9.45,33.32,22.17,31.18s26-33.46,26-33.46-3.58-12.33-15.58-.51l-12,11.83s-3.55-15.73,1.25-29S110.63,1082.29,110.63,1082.29Z"/><path class="cls-8" d="M164.58,968.51s0,46.07,3.33,56.08,8.68,20.7,4,40.06,9.34,32,1.33,41.39-18-2-18-18-2.67-32.71-10-37.38S129.86,1068,129.86,1076s-8.68,17.35-8.68,17.35-28.7-10-26.7-26,20-46.07,17.36-72.77v-34Z"/><path class="cls-9" d="M291.53,1774.09l-2,48.52s2,5.05,10.11,2l8.08-72.77Z"/><path class="cls-10" d="M499.11,1828.64c-1.51-7.8-3.39-15.53-5.38-23.23-4-15.53-8.32-31-11.25-46.74a344.71,344.71,0,0,1-3.85-97.26c6.24-62,26.83-123.54,17.93-186.36-4.41-31.1-16-60.48-25.12-90.36a432.72,432.72,0,0,1-17.27-93.1c-4.95-63.53,1-127.2,3.68-190.69v0c.67-15.74,9.84-60-5.49-71.11-5-3.64-11.37-4.83-17.48-5.91-21.64-3.81-106.83-22-103,21.11a2.67,2.67,0,0,0,3.18,2.36c-4.65,63.16-2.54,126.64,4.44,189.55,7.13,64.23,19.16,127.83,33.9,190.72,7.46,31.82,15.62,63.48,24.21,95s18.31,62.52,25.89,94.16c7.53,31.41,12.19,64,7.17,96.19-4.62,29.67-15.68,57.83-21.47,87.24-2.74,13.92-4.44,28.32-3.31,42.52.47,6,1.79,12.08,6.15,16.53,3.65,3.74,8.75,5.67,13.82,6.51,13.16,2.17,27.46-.79,40.48-2.74,8-1.2,15.95-2.53,23.82-4.27,5.42-1.2,10.41-3.45,11.43-9.47C502.64,1842.81,500.34,1835,499.11,1828.64Z"/><path class="cls-11" d="M201.24,1049.78c3.3,0,68.9-9.4,102.3,11.48,0,0,13.57,214,10.44,247.4s-11.48,52.2-7.31,101.26-11.48,162.85-11.48,240.1c0,0,5.22,36.54,16.7,59.5C329.11,1744,259.7,1810.78,242,1824.35S176.19,1839,172,1834.79s42.8-53.24,57.42-85.6,19.83-32.36,8.35-104.39-40.72-171.2-33.41-230.7-2.09-157.63-8.35-188.95S165.75,1049.78,201.24,1049.78Z"/><path class="cls-12" d="M259.26,279.77c-3.39,53.31-3.6,121.5-.15,164.44,28.59,2.37,63.52-18.83,77.21-39.06,16-23.64-5.93-56.61,4.67-74.76-29-39.9-42.41-86.12-75-119.21C263.12,232.84,260.8,255.73,259.26,279.77Z"/><path class="cls-12" d="M463.22,284.71c-12,20-25,38-45,50-2.09,1.33-4.14,2.66-6.17,4,17.16,21.71,1,48.61,19.68,68.29,14.68,15.47,45.95,21.27,64.83,9.79,35.91-21.85-7.76-85.12,20.38-193.17C494.91,238.18,477,260.54,463.22,284.71Z"/><path class="cls-13" d="M447.51,322.74s-13.05,66.61,2.48,81.19c1.13,1.06,21.17,10.37,21.93,11.55,14.71,23.13,28.19,62.2,6.17,91.41-26,34.43-196.75,51.83-224.8,9.88-17.37-26,49.45-74.48,72-104.29A65.34,65.34,0,0,0,335.71,396c11.46-26.25,1.82-52.15-1.29-59.64Z"/><path class="cls-14" d="M222.89,525.59s118.58,18.53,212.45,6.18,0,179.1,0,179.1,38.29,185.28,46.94,247-8.65,238.39-14.82,269.27c0,0-32.12,18.52-154.4,2.47s-149.46-23.47-149.46-23.47,16.06-329.8,38.29-402.67,38.29-69.17,22.24-156.87S222.89,525.59,222.89,525.59Z"/><path class="cls-15" d="M489.91,1005.45c-.68,2-3.38,31.77-10.14,50s-16.91,39.88-17.58,52.73-4.73,39.21,4.05,37.86,10.82-8.12,11.5-23.67,8.11-24.33,8.11-24.33,10.82,25,10.14,28.39-8.11,27-8.11,27-25,16.9-22.31,30.42,8.11,4.74,8.11,4.74L502.07,1163s27.72-45.3,31.78-50-9.47-49.35-6.09-69,6.76-35.15,6.76-35.15Z"/><path class="cls-9" d="M212.52,451.25s-16.47,0-24,23.2-44.16,207.33-51.65,247-35.18,184.12-36.67,232.77,0,77.85,0,77.85,26.94-26.95,74.84-5.24c0,0,5.24-119,9.73-172.15S226,695.25,226,695.25,227.49,456.49,212.52,451.25Z"/><path class="cls-9" d="M458.77,411.58s-41.17,86.83-65.12,117.51-78.59,107-84.58,120.51-26.94,46.4-18.71,91.31-3,197.6,32.18,214.81S491,990.9,491,990.9s-13.47-117.51-26.2-203.58,37.43-140,37.43-140l50.14-181.13S492.45,437.78,458.77,411.58Z"/><path class="cls-16" d="M308.32,427.3s-77.84,16.47-95.8,23.95c0,0-5.24,65.12-12,90.57s-14.22,73.35,0,121.25,15,47.15,9,68.86S152.64,894.35,151.89,934c0,0,22.46,21.7,79.34,15,0,0,87.57-158.68,75.6-254.48,0,0-35.93-57.64-38.18-74.85s-15.71-99.55,21.71-162.42S308.32,427.3,308.32,427.3Z"/><path class="cls-17" d="M330.07,403.58l-73.74,48.28,20.19,8.78-35.11,24.57s-29.85,67.6-21.07,93.93,86,115.88,87.78,126.41c0,0,4.39-14.92-28.09-86s6.15-127.28,6.15-127.28S336.21,415,330.07,403.58Z"/><path class="cls-17" d="M446.82,397.43s-34.23,80.76-54.42,98.32-65,100.07-73.74,121.14-22,58.81-22,58.81,15.8-21.06,50.92-59.69,108-117.63,115.87-138.7l-14.92-14H474s-7-42.14-8.77-53.55C464.66,405.84,446.82,397.43,446.82,397.43Z"/><ellipse class="cls-17" cx="296.89" cy="704.97" rx="6.77" ry="10.04"/><path class="cls-17" d="M384.48,779,384,823.4s65.87,8.87,78.49,14,14.95,8.88,14.95,8.88-3.27-37.38-12.62-52.33Z"/><path class="cls-17" d="M226.58,761.73l-10.75,43s-27.56,1.4-29.9,3.27,7.48-42.51,10.28-44.38S219.57,759.86,226.58,761.73Z"/><path class="cls-9" d="M550.83,468.47s4.49-6.74,18.71,8.23,2.24,180.38,4.49,211.82-19.46,285.17-23.95,316.6-14.22,76.35-14.22,76.35-54.64-15.72-79.34-15c0,0,25.45-203.59,34.43-238S488.7,664.57,488.7,649.6,499.93,526.1,550.83,468.47Z"/><path class="cls-18" d="M463.22,284.71c13.73-24.17,31.69-46.53,53.72-61.11.11-.45.22-.89.34-1.34,14-52.78,38.87-89.72,21.72-137.38a120.52,120.52,0,0,0-20.41-36.17c-35.15-41.55-90.52-43.44-104-43.9-45.88-1.56-135.91,12.11-151,81-10.75,48.94-.69,91.66,5.33,105.16q-1.53,9.92-2.9,20.23c32.58,33.09,46,79.31,75,119.21a19,19,0,0,1,3.28-4.14c14-13.28,49.23-8.19,66.05,10.4.61.67,1.19,1.36,1.73,2,2-1.32,4.08-2.65,6.17-4C438.22,322.71,451.22,304.71,463.22,284.71Z"/><path class="cls-19" d="M511.54,201.72c1.58-1.87,16.48-7,29.27-2.29,7.39,2.7,14.07,8.66,17.08,20.41,6.36,24.88-15.76,44.61-38,47.38a37.51,37.51,0,0,1-18.69-2.16Z"/><path class="cls-20" d="M512.55,216.93c8.47-9,34.81-4.05,31.85,8.62s-11.59,3.17-19.11,3.23-12.18,13.43-8.39,17.84,13.7,4,9.3,8.46-13.53,15.83-18.46-.87S505.44,224.51,512.55,216.93Z"/><path class="cls-21" d="M284.35,190.05c-1.35-1.55-14-5.63-24.65-1.51C253.53,190.92,248,196,245.64,206c-5,21,13.88,37.28,32.63,39.29A31.47,31.47,0,0,0,294,243.17Z"/><path class="cls-22" d="M283.72,202.86c-7.25-7.47-29.33-2.91-26.66,7.7s9.79,2.5,16.11,2.45,10.44,11.11,7.31,14.87-11.46,3.55-7.69,7.25,11.6,13.12,15.5-1S289.8,209.13,283.72,202.86Z"/><path class="cls-23" d="M521.34,144.58c2.23,24.52,8.94,127.47-60,192.56-14.1,13.32-51,48.15-92.89,39.95-37-7.24-57.19-43.94-66-60-43.27-78.48-20.83-185.49-20.83-185.5a76.41,76.41,0,0,1,15-31.05c37.23-45.32,131.68-42,187.86,1.32A145.37,145.37,0,0,1,521.34,144.58Z"/><path class="cls-24" d="M355.38,176.79a3,3,0,0,1-2-.8c-9.65-8.86-35.59-23.82-54.19-13.49a3,3,0,0,1-2.91-5.25c9.58-5.32,21.75-5.62,35.2-.88a81.21,81.21,0,0,1,26,15.21,3,3,0,0,1-2,5.21Z"/><circle class="cls-25" cx="469.92" cy="252.72" r="27.11" transform="translate(135.34 668.35) rotate(-79.44)"/><path class="cls-23" d="M464.39,249.43a5.31,5.31,0,1,0,5.26-5.35A5.3,5.3,0,0,0,464.39,249.43Z"/><circle class="cls-26" cx="302.56" cy="243.4" r="23.56" transform="translate(-83.49 285.23) rotate(-45)"/><path class="cls-23" d="M297.75,240.54a4.61,4.61,0,1,0,4.57-4.65A4.61,4.61,0,0,0,297.75,240.54Z"/><path class="cls-27" d="M419.22,297.33C410.73,322.58,392,337.94,376.05,336c-11.83-1.45-20.79-12.3-23.93-16.1a55,55,0,0,1-12-28.55,43.8,43.8,0,0,0,79.09,6Z"/><path class="cls-24" d="M421.76,287.2c-2.9-4.06-17.48,8.69-42.9,8.44-17.19-.17-31.38-6.29-41.28-12a65.21,65.21,0,0,0,7,16.09c3.45,5.67,9.07,14.94,20.34,20.11a38.72,38.72,0,0,0,13.83,3.46C403.33,324.26,425.74,292.79,421.76,287.2Z"/><path class="cls-14" d="M423.1,286.64c-1.51-2-5.16-.76-7.05-.14-4.32,1.43-8.49,3.26-12.84,4.63a75.64,75.64,0,0,1-43.75.76A92.52,92.52,0,0,1,338.74,283c-.57-.33-2.88.11-2.61,1.07a71.24,71.24,0,0,0,12.63,24.51,40.89,40.89,0,0,0,23.4,14.8c17.8,3.87,35-7.92,45.25-21.57a38.65,38.65,0,0,0,5.38-9.18C423.47,290.83,424.27,288.36,423.1,286.64Zm-3,5.75a31,31,0,0,1-3.89,7.26A60.52,60.52,0,0,1,400,315.73c-6.95,4.64-15.12,7.72-23.57,6.52a38.56,38.56,0,0,1-23.55-13.08A67.89,67.89,0,0,1,340,286.27a85.19,85.19,0,0,0,36.91,10.15A79.1,79.1,0,0,0,398.55,294a135.4,135.4,0,0,0,14.93-5,34.52,34.52,0,0,1,5-1.68l.32-.06.42-.05c-.14,0,.4,0,.31,0a1.09,1.09,0,0,1,.85.55C421.23,289,420.56,291.09,420.1,292.39Z"/><path class="cls-28" d="M350.58,290.86c-4.95-1.63,3.58,8.61,8.17,11.07,7.92,4.25,12.2,4.3,21.17,4.79,6.24.34,16.05-.28,21.73-2.9s11.84-7.42,10.22-13.46c0,0-18.13,5.95-32.82,5.94C379.05,296.3,363.41,295.09,350.58,290.86Z"/><path class="cls-14" d="M412.87,290.38c-.15-.58-1.3-.44-1.7-.31a132.37,132.37,0,0,1-19.77,4.72c-2.69.43-5.39.76-8.1,1-1.29.09-2.58.07-3.86.15h-.22l-.37,0c-3.2-.28-6.39-.7-9.55-1.19a113.17,113.17,0,0,1-18-4.1l-.08,0-.12-.05c-1.09-.35-3.44-.49-2.9,1.26a13.78,13.78,0,0,0,3.08,4.55,33.16,33.16,0,0,0,5.14,4.84,21,21,0,0,0,3.26,1.87,38.47,38.47,0,0,0,4.49,1.9,36.82,36.82,0,0,0,8.37,1.71c3.2.3,6.45.5,9.66.55a70.75,70.75,0,0,0,9.65-.5,39.86,39.86,0,0,0,9.27-2.07,25.66,25.66,0,0,0,8-4.77c2.1-1.88,3.95-4.35,4.05-7.28A8.13,8.13,0,0,0,412.87,290.38Zm-63.2.71c.2.06-.12,0,0,0Zm52.27,12c-5.13,2.6-11.21,3.18-16.88,3.33-2.9.08-5.79-.08-8.69-.25a49.2,49.2,0,0,1-8-1,33.93,33.93,0,0,1-7.91-3,21.25,21.25,0,0,1-5-3.71,29.05,29.05,0,0,1-4.49-5.29,4.21,4.21,0,0,1-.82-1.86.17.17,0,0,1,0-.1h0a129.38,129.38,0,0,0,27.71,5.39,26.74,26.74,0,0,0,3.58,0c2.82-.11,5.62-.38,8.42-.77a134.78,134.78,0,0,0,15-3q3.11-.8,6.17-1.73C411.87,296.69,406.37,300.8,401.94,303.05Z"/><path class="cls-28" d="M306.56,209.3c.1,12.23,9.19,23.12,21.19,23s21-10.22,20.93-22.45-9.43-20.93-21.43-20.83S306.45,197.07,306.56,209.3Z"/><ellipse class="cls-14" cx="327.73" cy="212.14" rx="14.53" ry="15.72" transform="translate(-1.79 2.79) rotate(-0.49)"/><path class="cls-28" d="M326.68,206.29c0,3.17,3,5.72,6.65,5.68s6.58-2.62,6.55-5.79-3-5.72-6.65-5.69S326.65,203.12,326.68,206.29Z"/><path class="cls-14" d="M347.92,203.76c-3.41-13.37-22.81-16.41-33.14-10.32a16.12,16.12,0,0,0-7.53,10.43c2.08-9.73,9-15.24,19.26-15.53S345.38,193.79,347.92,203.76Z"/><path class="cls-14" d="M315.82,191.22s-13.33,3.39-16.19-3.75c0,0,2.06,12.43,11.58,8.15A8.59,8.59,0,0,0,315.82,191.22Z"/><path class="cls-14" d="M310.7,194.86s-7.93,4.8-10.61,1.07c0,0,2.75,6.6,7.89,3.06C311.12,196.84,310.7,194.86,310.7,194.86Z"/><path class="cls-28" d="M423.72,220.62c.11,12.23,9.17,23.11,21.13,23s21-10.22,20.88-22.45-9.41-20.93-21.38-20.83S423.62,208.39,423.72,220.62Z"/><ellipse class="cls-14" cx="444.84" cy="223.46" rx="14.49" ry="15.72" transform="translate(-1.88 3.79) rotate(-0.49)"/><path class="cls-28" d="M443.12,217.07c0,3.17,3,5.72,6.63,5.68s6.57-2.62,6.54-5.79-3-5.72-6.63-5.69S443.09,213.9,443.12,217.07Z"/><path class="cls-14" d="M464.91,215c-.82-5.56-8-10.54-12.8-12.13-6.26-2.06-14.5-1.46-20.19,1.91a16.11,16.11,0,0,0-7.51,10.43,15,15,0,0,1,6.66-11.74c5.32-3.93,13.91-4.49,20.1-2.79C457.8,202.47,463.88,208,464.91,215Z"/><path class="cls-14" d="M455.14,202.21s13.55,3,16.1-4.2c0,0-1.63,12.75-11.22,8.64A12,12,0,0,1,455.14,202.21Z"/><path class="cls-14" d="M461.4,206.49s7.22,3.83,9.75,0c0,0-2.47,6.71-7.76,3.4C460.17,207.86,461.4,206.49,461.4,206.49Z"/><path class="cls-29" d="M366.77,209.19c-14.22,26.35-14.65,50.45-3.84,58.75,5.89,4.51,18.35,6.84,25.76,1.26,3.44-2.57,5.14-6.12,6.15-10.35,5.29-22,7.25-47.38-5.52-54C374.65,197.31,366.77,209.19,366.77,209.19Z"/><path class="cls-23" d="M361,251.26c-.18,3.42,2.12,6.34,5.15,6.51s5.63-2.46,5.81-5.88-2.11-6.34-5.14-6.52S361.14,247.84,361,251.26Z"/><path class="cls-18" d="M397.76,237.79a41,41,0,0,1,.45,9.53c-.57,9.08-4.31,20.72-14.35,23.11,5.27-2.87,8.89-8.1,10.87-13.66C396.46,251.9,398.63,242.85,397.76,237.79Z"/><path class="cls-24" d="M414.78,185.17a3,3,0,0,1-1.66-5.49c1.43-1,35.56-23.11,76.71-3.1a3,3,0,0,1-2.63,5.4c-38-18.47-70.44,2.48-70.76,2.7A3.06,3.06,0,0,1,414.78,185.17Z"/><path class="cls-18" d="M279.09,135.76s4.7-49.84,50.11-50c0,0,40.77-21.91,89.59-7.44s110.58,65.8,126.51,64.5c0,0,17.4-39.14-21.63-95.51S374.58.64,374.58.64,238,9.6,279.09,135.76Z"/><path class="cls-30" d="M293.22,71.71c0-9-1-18,2-27,3,8,8,16,12,24-1.28-17.94,2.78-37.93,13.23-52.87-11.48,5.78-22.8,13.71-31.66,24.58A89.83,89.83,0,0,0,293.22,71.71Z"/><path class="cls-18" d="M324.7,82.85S436,147.06,486.16,198.43s-46.1,232.92-38.76,262.88,51.6,12.94,82.79,29.46,37.64,15.41,44.37,14.8,5-29.87-11.78-39.67c-14.87-8.67-42.37-11.83-41.15-39.35S546.7,304.24,562,273.66,574.23,88.35,510.62,36.37,317.36,22.91,324.7,82.85Z"/><path class="cls-30" d="M495.9,90.91c19,2,34,15,48,28-4-15-14-26-26-36a146.65,146.65,0,0,1,36.77,28.21c-4.85-15.88-11-30.92-18.71-44.07-40.87-35.26-93.4-57.43-148.74-42.34,19,5,40,12,54,27-25-14-60-20-86-5,22,1,44,6,63,17-20-3-41-7-61,0,76-2,137,43,184,101,15.83,19.64,24.24,41.08,28.25,63.5a385.58,385.58,0,0,0-3.07-61.33C549.51,136.1,525.11,108.44,495.9,90.91Z"/><path class="cls-30" d="M525.54,245s-18.27-86.48-98.67-123.64-92-49.94-92-49.94,84.66,35.32,110.85,48.12S523.1,164,525.54,245Z"/><path class="cls-31" d="M200.36,1794s-41.44,33.35-39.42,45.48,7.08,14.15,7.08,14.15,68.73,11.12,90-10.11c0,0,2-45.48,34.37-69.74s37.4-47.5,37.4-47.5a49.46,49.46,0,0,0-5.24-21.85c-2.66-5.19-8.07-11.52-18.78-24-2.27-2.65-4.16-4.8-5.4-6.21-1.95,10.4,1.12,29.52-11,45-22.24,28.3-34.42,93.72-54.58,95-17.86,1.15-38.57,7-42.45-1C189.79,1808.16,195,1800.31,200.36,1794Z"/><path class="cls-31" d="M407.24,1810s-15.88,64.83,27.12,77.43,73.85,2.17,73.85-30a432.58,432.58,0,0,0-15.44-55.76s4.58,30.13-23.66,46.2S407.24,1810,407.24,1810Z"/><path class="cls-1" d="M129.89,1080a38.82,38.82,0,0,1,.35-7.2,38.18,38.18,0,0,1,1.35-6c3.6-.93,9.16,2.35,14.49,5.39s11,6.07,11.49,21.8c1.21,36.25-1.81,43.5-1.81,43.5s-14.5,3-20.54-4.83q1.5-23.27,3-46.53"/></g></g></g></svg>