<svg xmlns="http://www.w3.org/2000/svg" xmlns:xlink="http://www.w3.org/1999/xlink" viewBox="0 0 570.65 1930.15"><defs><style>.cls-1{fill:#b96342;}.cls-2{fill:#c47a63;}.cls-3{fill:#254059;}.cls-4{fill:#0a1a33;}.cls-5{fill:url(#linear-gradient);}.cls-6{fill:url(#linear-gradient-2);}.cls-7{fill:url(#linear-gradient-3);}.cls-8{fill:url(#linear-gradient-4);}.cls-9{fill:url(#linear-gradient-5);}.cls-10{fill:#ffbdaf;}.cls-11{fill:url(#radial-gradient);}.cls-12{fill:url(#radial-gradient-2);}.cls-13{fill:#ff6066;}.cls-14{fill:#fff;}.cls-15{fill:url(#linear-gradient-6);}.cls-16{fill:#f9977f;}.cls-17{fill:url(#linear-gradient-7);}.cls-18{fill:#ff676c;}.cls-19{fill:#56ade3;}.cls-20{fill:#2a77c2;}.cls-21{fill:#ff3c43;}.cls-22{fill:#188fd9;}.cls-23{fill:url(#linear-gradient-8);}.cls-24{fill:url(#linear-gradient-9);}.cls-25{fill:url(#linear-gradient-10);}</style><linearGradient id="linear-gradient" x1="326.97" y1="402.6" x2="331.23" y2="314.15" gradientUnits="userSpaceOnUse"><stop offset="0" stop-color="#ffbdaf"/><stop offset="0.82" stop-color="#ff6066"/></linearGradient><linearGradient id="linear-gradient-2" x1="2487.5" y1="172.59" x2="2431.27" y2="226.23" gradientTransform="translate(-1990.44 19.75) rotate(0.75)" xlink:href="#linear-gradient"/><linearGradient id="linear-gradient-3" x1="2498.85" y1="133.42" x2="2448.55" y2="246.6" gradientTransform="translate(-1990.44 19.75) rotate(0.75)" xlink:href="#linear-gradient"/><linearGradient id="linear-gradient-4" x1="2201.24" y1="164.53" x2="2237.59" y2="206.22" gradientTransform="translate(-1990.44 19.75) rotate(0.75)" xlink:href="#linear-gradient"/><linearGradient id="linear-gradient-5" x1="2187.12" y1="127.33" x2="2221.54" y2="200.14" gradientTransform="translate(-1990.44 19.75) rotate(0.75)" xlink:href="#linear-gradient"/><radialGradient id="radial-gradient" cx="3893.26" cy="211.92" r="33.95" gradientTransform="matrix(-0.7, -0.72, -0.72, 0.7, 3287.7, 2903.16)" gradientUnits="userSpaceOnUse"><stop offset="0" stop-color="#ff8084"/><stop offset="0.42" stop-color="#ffa19a"/><stop offset="0.69" stop-color="#ffb8a9"/><stop offset="1" stop-color="#ffbdaf"/></radialGradient><radialGradient id="radial-gradient-2" cx="4070.6" cy="200.55" r="29.51" gradientTransform="matrix(-0.9, -0.44, -0.44, 0.9, 3977.21, 1879.12)" xlink:href="#radial-gradient"/><linearGradient id="linear-gradient-6" x1="4003.84" y1="172.57" x2="3998.3" y2="143.14" gradientTransform="matrix(-1, 0.03, 0.03, 1, 4305.6, 75.46)" xlink:href="#linear-gradient"/><linearGradient id="linear-gradient-7" x1="3991.96" y1="140.46" x2="3991.96" y2="258.21" gradientTransform="matrix(-1, -0.01, -0.01, 1, 4314.94, 101.4)" xlink:href="#linear-gradient"/><linearGradient id="linear-gradient-8" x1="-6164.99" y1="586.43" x2="-6166.32" y2="633.69" gradientTransform="matrix(-1, 0, 0, 1, -5938.12, 0)" xlink:href="#linear-gradient"/><linearGradient id="linear-gradient-9" x1="-6246.51" y1="703.21" x2="-6295" y2="753.46" gradientTransform="matrix(-1, 0, 0, 1, -5938.12, 0)" xlink:href="#linear-gradient"/><linearGradient id="linear-gradient-10" x1="450.55" y1="653.83" x2="396.55" y2="634.63" xlink:href="#linear-gradient"/></defs><title>Asset 4</title><g id="Layer_2" data-name="Layer 2"><g id="Objects"><g id="Office_Staff" data-name="Office Staff"><path class="cls-1" d="M414.11,1855.65s-14-2.71-15.34,5.87,1.81,27.52,1.81,27.52,19.4,15.8,28.43,14.9,4.51-8.58,11.73-5.42,6.77,16.7,6.77,16.7,29.78,12.63,54.15,11.73,51.89,1.35,62.72-5.87,4.06-18.5,4.06-18.5l-30.68-25.72Z"/><path class="cls-2" d="M409.15,1818.2s-4.51,37.9-1.8,44.67,31.13,18.05,31.13,18.05a47.19,47.19,0,0,0,5.76,13.2c3.83,6.06,10.34,10.81,22.67,15.23,17,6.11,36.26,4.46,74,.9,6.06-.57,16.07-1.64,19.49-8.3.38-.75,3.86-4.59.82-8.39-1.8-2.26-24.82-24.82-36.1-33.4s-18.5-25.72-18.95-37.9S409.15,1818.2,409.15,1818.2Z"/><path class="cls-2" d="M105.19,1801.3c-1,9.74-14.61,38-24.35,45.78s-25.32,23.38-50.65,28.25-30.19,37-30.19,37,49.67,23.38,85.71,16.56,54.55-13.64,54.55-13.64,2-20.45,15.58-20.45,14.61,6.82,14.61,6.82,33.12-2,40.91-12.66-11.69-69.16-10.71-83.77S105.19,1801.3,105.19,1801.3Z"/><path class="cls-1" d="M177.22,1893.22c.21-.48-6.92-4.46-7.72-4.84a19.17,19.17,0,0,0-8.68-1.94,42.21,42.21,0,0,0-13.69,2.68c-3.75,1.41-7.28,3.59-9.27,7.14-1.8,3.21-3,7.33-6.64,9-39.13,17.61-90.7,19.89-127.56-5.3A60.42,60.42,0,0,0,0,1912.34s49.67,23.38,85.71,16.56,54.55-13.64,54.55-13.64,2-20.45,15.58-20.45,14.61,6.82,14.61,6.82,33.12-2,40.91-12.66c2-2.81,2.21-8.91,1.36-16.64-5.4,4.14-12,7.17-17.5,9.89C189.22,1885.22,180.22,1886.22,177.22,1893.22Z"/><path class="cls-3" d="M156.82,837l-1.95,46.75A453.36,453.36,0,0,0,123.7,990a444.49,444.49,0,0,0-5.84,78.89c.59,65.87-4.65,210.78-14.61,424.67,0,0-22.41,320.46-21.43,343.83,0,0,59.41,17.54,86.69,24.35s42.85-1.94,42.85-1.94,31.17-326.3,32.14-359.42,76-320.45,76-320.45,57.46,264,52.59,325.32,28.25,300,34.1,334.09c0,0,33.11,18.51,65.25,14.61s44.81-19.48,44.81-19.48l3.9-52.6a2971.67,2971.67,0,0,1-29.23-326.29s9.74-184.41,9.74-379.87c0-39.93,6.82-82.79,6.82-82.79l-44.8-98.38-2-42.85Z"/><path class="cls-4" d="M398.22,905.22A410.09,410.09,0,0,0,462.63,894l-1.92-42.34L156.82,837l-1.63,39.12c22.8,20.78,58.88,22.74,88,26.07A803.16,803.16,0,0,0,398.22,905.22Z"/><polygon class="cls-3" points="200.17 858.65 194.52 909.46 210.04 910.87 218.51 860.06 200.17 858.65"/><polygon class="cls-3" points="423.15 867.12 432.32 912.99 447.85 905.23 437.26 862.18 423.15 867.12"/><path class="cls-5" d="M269.53,330s-5.08,97.56-2.95,104,38.44,62.55,65.09,49.76S386,442.11,386,442.11s0-81,1.06-91.67S269.53,330,269.53,330Z"/><path class="cls-6" d="M473.94,198.79c1.71-1.95,17.62-7,31.07-1.76,7.77,3,14.72,9.5,17.64,22,6.18,26.52-17.73,46.92-41.37,49.35a39.8,39.8,0,0,1-19.76-2.71Z"/><path class="cls-7" d="M474.66,214.93c9.18-9.37,37-3.5,33.56,9.86s-12.36,3.1-20.33,3-13.22,14-9.3,18.71,14.43,4.54,9.66,9.18-14.7,16.47-19.54-1.34S467,222.8,474.66,214.93Z"/><path class="cls-8" d="M224.42,181.55c-1.66-2-17.43-7.47-31-2.57-7.84,2.83-15,9.11-18.2,21.56-6.87,26.35,16.49,47.37,40.06,50.41a39.8,39.8,0,0,0,19.83-2.19Z"/><path class="cls-9" d="M223.28,197.68c-8.94-9.61-36.89-4.47-33.81,9s12.28,3.42,20.24,3.53,12.86,14.29,8.81,18.95-14.54,4.16-9.9,8.93,14.27,16.84,19.58-.84S230.78,205.74,223.28,197.68Z"/><path class="cls-1" d="M256.28,41.87c-8.42-2.25-14.68-1.5-19.41.41-27.14,10.94-34,71.86-19.84,151.66Z"/><path class="cls-10" d="M476.26,148.86c7.69,96.22-19.93,180.54-75.51,215.43-10.33,6.48-36.27,22.77-71.76,21.52-3.85-.13-47.49-2.27-78-33.18-65.64-66.44-28.5-223-28.5-223h0s35.69-43.88,151.32-40.3C469.48,92.32,476.26,148.86,476.26,148.86Z"/><path class="cls-1" d="M296.53,167.38a4,4,0,0,1-2.08-.59c-11.25-6.86-29.63-12.18-43.38-7.66a4,4,0,1,1-2.5-7.6c16.25-5.34,36.84.39,50,8.43a4,4,0,0,1-2.08,7.42Z"/><circle class="cls-11" cx="419.29" cy="262.3" r="28.74" transform="translate(-62.66 373.31) rotate(-45)"/><path class="cls-10" d="M413.51,258.68a5.62,5.62,0,1,0,5.69-5.55A5.62,5.62,0,0,0,413.51,258.68Z"/><circle class="cls-12" cx="242.11" cy="248.6" r="24.98" transform="translate(-83.76 129.32) rotate(-25.65)"/><path class="cls-10" d="M237.08,245.46a4.89,4.89,0,1,0,5-4.83A4.9,4.9,0,0,0,237.08,245.46Z"/><path class="cls-13" d="M384.44,309c-39.06,5.08-82.46-4.43-114.75-27,0,0,15.39,45.44,54.39,47.21S384.44,309,384.44,309"/><path class="cls-4" d="M385.9,308.85a.64.64,0,0,0-.52-.68l-.07,0h0a2.21,2.21,0,0,0-.35,0,1.71,1.71,0,0,0-.32,0,169.9,169.9,0,0,1-91.26-14,147.37,147.37,0,0,1-22.51-12.86c-.63-.44-2.95.09-2.59,1.14a77.78,77.78,0,0,0,5.88,12.66A79,79,0,0,0,293,318.18a52,52,0,0,0,34.65,12.07,90.72,90.72,0,0,0,41.07-9.36,77.68,77.68,0,0,0,11.6-7.08,42.89,42.89,0,0,0,5.14-4.28l0,0A.91.91,0,0,0,385.9,308.85Zm-15.22,8.94a84.2,84.2,0,0,1-36.82,10.5c-7,.38-14.13.09-20.91-2a50.65,50.65,0,0,1-15.16-7.68c-8.07-5.89-14.54-13.84-19.62-22.39a93,93,0,0,1-4.92-9.45c-.19-.41-.36-.83-.52-1.25a157,157,0,0,0,38.16,17.72,175,175,0,0,0,46.84,7.9,167.76,167.76,0,0,0,23.93-.95A61.86,61.86,0,0,1,370.68,317.79Z"/><path class="cls-14" d="M365.38,315.78a132.6,132.6,0,0,1-51.53-2.62c-11.85-3.05-26.79-7.12-33.11-19.74a26.83,26.83,0,0,1-2.07-5.68c26.38,15.59,58.53,23.34,89.39,22.51C367.17,312.09,366.27,313.93,365.38,315.78Z"/><path class="cls-4" d="M368.64,309.51a170.36,170.36,0,0,1-70.75-13.33,153.92,153.92,0,0,1-18.05-9.09c-.53-.32-2.83.16-2.62,1a27.63,27.63,0,0,0,10.43,15.52c4.92,3.69,10.72,6,16.55,7.83A140.22,140.22,0,0,0,338,317.68a143.85,143.85,0,0,0,27.12-1.2l.37-.07.17-.05c.5-.14,1.11-.4,1.12-.79.9-1.84,1.79-3.69,2.68-5.53C369.71,309.6,368.85,309.51,368.64,309.51Zm-45.2,4.84c-4.94-.9-9.83-2.12-14.66-3.51-5.72-1.65-11.47-3.67-16.49-6.93a28.07,28.07,0,0,1-11.2-13.48,168.39,168.39,0,0,0,65.71,19.86,177.34,177.34,0,0,0,19.56.71c-.69,1.41-1.37,2.82-2.06,4.24A134,134,0,0,1,323.44,314.35Z"/><path class="cls-4" d="M392.21,318.75c-1.17-1.64-2.2-3.23-3.23-4.82s-2-3.19-3-4.82-1.88-3.31-2.71-5.05a28,28,0,0,1-2-5.53,31.78,31.78,0,0,1,4,4.28,40.56,40.56,0,0,1,3.3,4.78,32.26,32.26,0,0,1,2.51,5.31A17.5,17.5,0,0,1,392.21,318.75Z"/><path class="cls-15" d="M332.68,353.58l.83-13.35a47.81,47.81,0,0,1-43.92-9.84l-4.72,14.72a43.62,43.62,0,0,0,47.81,8.47Z"/><path class="cls-1" d="M485.6,74.57c-17.47-.23-22,13.68-22,13.68s21.1-10.2,35.71,8.33c6.86,8.7,8.61,25.23,8.43,41.23-9.78,43.19-33.36,87.13-33.36,87.13s5.42-75.34-17.66-100.09c-23.25-24.92-38.22-20.34-49.24-24,0,0-7.34-48.71,10.62-56,3.68-1.49,9.45-2.27,16.34-2.15C469,54.3,485.6,74.57,485.6,74.57Z"/><path class="cls-16" d="M510.52,98.73c1.62,12.26.23,25.7-2.8,39.08.18-16-1.57-32.53-8.43-41.23-14.61-18.53-35.71-8.33-35.71-8.33s4.55-13.91,22-13.68c0,0-16.58-20.27-51.18-31.88C461.19,43.17,505.07,57.5,510.52,98.73Z"/><path class="cls-14" d="M248.76,216.76c-.17,13,8,24.69,19,24.84s19.61-10.4,19.78-23.36-8.24-22.38-19.3-22.53S248.93,203.8,248.76,216.76Z"/><ellipse class="cls-4" cx="268.21" cy="220.22" rx="16.67" ry="13.39" transform="translate(44.52 485.54) rotate(-89.25)"/><path class="cls-14" d="M261.19,212.76a6.09,6.09,0,1,0,6.17-6A6.08,6.08,0,0,0,261.19,212.76Z"/><path class="cls-4" d="M287,211.82a20,20,0,0,0-10.12-12.63,21.05,21.05,0,0,0-20.52,1.16,17.83,17.83,0,0,0-6.8,10.67,16.18,16.18,0,0,1,5.85-11.92,18.77,18.77,0,0,1,6.2-3.12,21.32,21.32,0,0,1,13.82.5C281.94,199.12,285.34,205.18,287,211.82Z"/><path class="cls-14" d="M373.55,226.89c-.17,13,8,24.69,19,24.84s19.62-10.4,19.78-23.36-8.24-22.38-19.3-22.53S373.72,213.93,373.55,226.89Z"/><path class="cls-4" d="M379.62,230.17c-.12,9.21,5.77,16.75,13.17,16.84s13.49-7.28,13.61-16.49-5.78-16.74-13.17-16.84S379.74,221,379.62,230.17Z"/><path class="cls-14" d="M386,222.89a6.09,6.09,0,1,0,6.17-6A6.09,6.09,0,0,0,386,222.89Z"/><path class="cls-4" d="M411.74,222a19.8,19.8,0,0,0-9.41-12.26,21.09,21.09,0,0,0-21.22.79,17.83,17.83,0,0,0-6.8,10.67,16.17,16.17,0,0,1,5.86-11.91c5.92-4.75,15.42-5.31,22-1.7A18.53,18.53,0,0,1,411.74,222Z"/><path class="cls-17" d="M307.07,200.61S290.46,243.34,296.15,262s41.94,24.58,47.16-2.49,6.29-58-9.38-65.35C315.93,185.76,307.07,200.61,307.07,200.61Z"/><path class="cls-10" d="M299.51,244c-.05,4.17,2.86,7.6,6.51,7.66s6.63-3.29,6.68-7.46-2.87-7.6-6.51-7.66S299.56,239.86,299.51,244Z"/><path class="cls-18" d="M345.74,233.78a53.61,53.61,0,0,1,.87,11.53,56.58,56.58,0,0,1-1.43,11.55,34,34,0,0,1-1.91,5.58,24,24,0,0,1-3.11,5.05c-2.06,2.57-5.25,5.61-8.56,6.27,4.53-3.91,8.09-7.47,10.27-13.28a57.51,57.51,0,0,0,2.95-13.67C345.27,242.85,346.49,237.71,345.74,233.78Z"/><path class="cls-1" d="M423.93,176.84a3.84,3.84,0,0,1-1.05-.14c-29-7.87-57.65-.33-57.94-.26a4,4,0,0,1-2.09-7.72c1.25-.34,30.94-8.19,62.13.26a4,4,0,0,1-1.05,7.86Z"/><path class="cls-1" d="M474.87,60.78s-16,38.23-50.56,51.79-46.86-18.5-85.09-7.4S282,87.53,222.46,129.65c0,0-2.85-109.57,50.17-124.36s83.86,6.16,91.25,6.16,70.29-7.4,92.49,9.87S474.87,60.78,474.87,60.78Z"/><path class="cls-16" d="M237,41.83C244.46,24.42,255.69,10,272.63,5.29c53-14.8,83.86,6.16,91.25,6.16s70.29-7.4,92.49,9.87,18.5,39.46,18.5,39.46-1.33,3.15-4,8c.12-7.38-1.16-13.39-3.56-18.3-10.1-3.36-40.3-10.38-43.18,24.81,0,0-8.75-32,5.1-45.12-12.41-1.39-26.15-1.06-39.15-.84-8.88,5.46-15.72,15.24-13.13,32.78,0,0-7.58-18.8-5-32.75a115.13,115.13,0,0,1-13.13-1c-10.71.21-47.54,4.16-41.88,49.21,0,0-15.5-45.2,3.94-56.52-11.84-2.55-23.75-4.61-35.09-3.92-11.76,12-24.91,33.57-2,57,0,0-40.42-25.1-26.84-46.83C250.46,32.09,243.7,36.87,237,41.83Z"/><path class="cls-1" d="M255.65,360.73c38.37,22.86,49.8,32.66,101.23,27.76s96.34-40.82,102.87-102.05c0,0-27.76,38.37-52.25,50.62,0,0,0-41.64-7.35-50.62,0,0-37.55,9.8-67.76,3.26S290.75,273.38,281,268.48s-19.6-8.17-25.31-.82,2.45,51.43-3.27,58-34.29-39.19-34.29-39.19S217.28,337.87,255.65,360.73Zm10.61-91.44s25.31,23.68,53.07,28.58,34.29,5.71,72.66,0c0,0,7.34,30.21,7.34,37.55S371.28,369.3,309,356.85c0,0-30.47-1-39.45-28S261.36,270.93,266.26,269.29Z"/><path class="cls-4" d="M481.67,193.72a3.07,3.07,0,0,0-4.25,0c-.27.24-.55.47-.83.69l-.43.33-.75.53c-1.05.72-2.14,1.41-3.24,2.07-2.58,1.55-5.23,3-7.92,4.33a166.42,166.42,0,0,1-17.14,7.58,65.28,65.28,0,0,1-6.69,2.18,50.66,50.66,0,0,0-89-10.48,86.39,86.39,0,0,0-15.59-3.84,107.39,107.39,0,0,0-21.91-1.94,39.7,39.7,0,0,0-8.4,1,47.28,47.28,0,0,0-85.26-7.6c-.4-.57-.78-1.16-1.14-1.75-.95-1.59-1.81-3.22-2.64-4.88s-1.58-3.29-2.31-5l0-.06c-.06-.17-.13-.33-.2-.5l-.39-1c-.21-.55-.41-1.1-.57-1.66a3,3,0,0,0-5.79,1.6,60.16,60.16,0,0,0,4.11,9.6c1.49,3,3.08,6.39,5.48,8.77a2.94,2.94,0,0,0,.68.47A47.29,47.29,0,0,0,256,259.33a49.5,49.5,0,0,0,5.15.27,47.3,47.3,0,0,0,46-57.65c.61-.15,1.23-.27,1.85-.37l.73-.11.91-.1c.77-.07,1.55-.13,2.32-.17a79.6,79.6,0,0,1,10.24.26c3.69.31,6.62.7,10.17,1.3,3.2.54,6.39,1.18,9.54,2,1.78.43,3.56.9,5.31,1.47a50.66,50.66,0,0,0,5.49,55.13,50.26,50.26,0,0,0,34,18.56,51.32,51.32,0,0,0,5.52.3,50.65,50.65,0,0,0,49-63,100.15,100.15,0,0,0,14.64-5.45,160.19,160.19,0,0,0,17.6-8.76,46.77,46.77,0,0,0,7.19-5A3,3,0,0,0,481.67,193.72ZM302.1,216.77A41.25,41.25,0,1,1,261,171.1a42.35,42.35,0,0,1,4.49.24,41.26,41.26,0,0,1,36.6,45.43Zm135.41,17.57h0a44.59,44.59,0,1,1-9.61-32.76A44.27,44.27,0,0,1,437.51,234.34Z"/><path class="cls-19" d="M260,409.81s-55.94,16.41-67.13,19.4-38-6-59.67,11.93-11.19,239.43-.74,264,11.18,75.34,16.41,97.71c5.09,21.85,2.23,43.26,6.71,44.76s103.23,30.86,174.93,29c58.23-1.53,129.39-10.34,132.37-15.56s33.57-134.26,49.23-201.39,12.68-167.07,12.68-167.07-39.53-23.87-77.57-39.54-58.93-27.59-58.93-27.59l-53.51,23Z"/><path class="cls-20" d="M169.06,655.59a274,274,0,0,0,49.91-2.7c29.2-4.3,41.09-11,67.46-13.49a193.85,193.85,0,0,1,47.21,1.35c6.83.37,17.11.88,29.68,1.35,12.06.45,20.71.65,21.59.68,13.5.38,42.59,11.22,107.92,51.93q-4.49,40-9,80l-3.73,17.73c-44.63-3.26-81.54-7.6-108.26-11.2-58-7.81-79.33-24.27-93.33-37.33-5.61-5.24,3.24-5.72.94-11.2-3.83-9.11-32.23-.08-67.2-3.73-16.56-1.74-56.43-3.81-64.39-24.27C140.4,685.5,164.83,659.92,169.06,655.59Z"/><path class="cls-20" d="M253.36,433.18s21.46,70,24.26,72.8,34.53-26.14,34.53-26.14,43.87-7.46,46.67-3.73,24.26,40.13,24.26,40.13,15.6-70.85,13.4-86.29l-58.2,30.29Z"/><path class="cls-13" d="M324.87,488.13s-13.42,36.55-14.17,55.2.75,259.56.75,259.56L310,936.41l51.46,48.48,51.47-56.69L382.31,582.86s-16.41-68.62-36.55-94.73Z"/><path class="cls-21" d="M345.22,506.22c3.19-1.06,6.52-1.91,9.84-2.79a97.64,97.64,0,0,0-9.3-15.3H324.87s-1.28,3.51-3.08,8.89C327.24,503.83,335.86,507.93,345.22,506.22Z"/><path class="cls-13" d="M313.69,444.87l-5.23,22.38s14.18,20.13,16.41,20.88,20.89,0,20.89,0l15.66-32.82-21.63-10.44h-26.1Z"/><path class="cls-22" d="M283.1,495.59a131.34,131.34,0,0,0,25.36-28.34c11.19-17.16,17.16-23.13,23.13-22.38a394.9,394.9,0,0,1-31.33-27.6,399,399,0,0,1-33-36.59c.37-2.22.63-4.65,0-4.87-1.49-.52-7.11,11.48-10.23,19.09a162.91,162.91,0,0,0-8.21,26.1,485.29,485.29,0,0,0,22.38,52.21C275.08,481,279.08,488.5,283.1,495.59Z"/><path class="cls-22" d="M339.79,444.87s29.09,14.17,41.77,56.69c0,0,8.95-31.33,11.93-51.47l3-20.14s-6.43-17.44-7.18-30.12S386,387.44,386,387.44s-1.5,23.86-14.18,35.05C361.6,431.55,339.79,444.87,339.79,444.87Z"/><path class="cls-23" d="M255.35,645.91s-19.31-56.58-25.3-59.24-27.29-13.32-28.62-9.32-6,10.65,13.31,24S238,667.88,238,667.88Z"/><path class="cls-24" d="M369.4,732.73a328.45,328.45,0,0,1-60-1.52c-28.54-3.34-42.81-5-50.67-10.74-35.84-26.09-12.34-85.77-36.24-102.73,0,0-11.8-8.5-13.09-17.8-1.15-8.34,5.39-10.61,5.39-10.61s31.57,21.21,38.49,35.61,35,52.86,41.88,59.3,68.52,6.44,68.52,6.44Z"/><path class="cls-22" d="M269.68,740.24s26.1-35.06,21.63-71.61c0,0,105.91,13.43,135,3s44.76-39.53,44.76-39.53,6-107.41,26.85-125.31,26.56-14.4,26.56-14.4,42.06,39,42.06,87.49,15.66,165.59-14.17,184.24-126.06,18.64-148.43,16.41-87.27-25.36-87.27-25.36Z"/><path class="cls-20" d="M427.22,677.22A77,77,0,0,0,442.83,663a71.35,71.35,0,0,1-16.52,8.61c-29.09,10.44-135-3-135-3,3.37,27.57-10.64,54.27-17.73,65.74,37.66-11.91,77-16.81,110.64-43.15C396.22,682.22,414.22,686.22,427.22,677.22Z"/><path class="cls-25" d="M399.86,628c-1.2-.6,37.2-17.4,48.6-14.4s22.61,18.53,22.61,18.53-3.48,24.75-28.35,34.31-44.66,8.35-44.66,8.35Z"/><path class="cls-22" d="M132.05,442.22s-28,24.28-33.92,78.73-20.89,88.76,13.42,136.5,21.63,55.94,53,61.9,115.61,7.46,162.6-14.17,117.85-38,115.61-38.78,7.46-54.45-20.88-58.18L363.66,612s-129-17.16-148.43-12.68-8.21-73.1-19.39-89.51S175.32,436.26,132.05,442.22Z"/></g></g></g></svg>