<svg xmlns="http://www.w3.org/2000/svg" xmlns:xlink="http://www.w3.org/1999/xlink" viewBox="0 0 595.88 1973.51"><defs><style>.cls-1{fill:url(#linear-gradient);}.cls-2{fill:#b96342;}.cls-3{fill:#683d30;}.cls-4{fill:#254059;}.cls-5{fill:#1b3244;}.cls-6{fill:#455a73;}.cls-7{fill:#ffdab8;}.cls-8{fill:#ffe8d4;}.cls-9{fill:#68798e;}.cls-10{fill:url(#linear-gradient-2);}.cls-11{fill:url(#linear-gradient-3);}.cls-12{fill:url(#linear-gradient-4);}.cls-13{fill:url(#linear-gradient-5);}.cls-14{fill:url(#linear-gradient-6);}.cls-15{fill:url(#linear-gradient-7);}.cls-16{fill:url(#linear-gradient-8);}.cls-17{fill:url(#linear-gradient-9);}.cls-18{fill:#ffbdaf;}.cls-19{fill:url(#radial-gradient);}.cls-20{fill:url(#radial-gradient-2);}.cls-21{fill:url(#linear-gradient-10);}.cls-22{fill:#f9977f;}.cls-23{fill:#fff;}.cls-24{fill:#0a1a33;}.cls-25{fill:url(#linear-gradient-11);}.cls-26{fill:#ff676c;}.cls-27{fill:#ff6066;}.cls-28{fill:url(#linear-gradient-12);}.cls-29{fill:#475366;}.cls-30{fill:url(#linear-gradient-13);}.cls-31{fill:url(#linear-gradient-14);}.cls-32{fill:url(#linear-gradient-15);}.cls-33{fill:#5c6f85;}</style><linearGradient id="linear-gradient" x1="265.22" y1="447.52" x2="284.84" y2="379.84" gradientUnits="userSpaceOnUse"><stop offset="0" stop-color="#ffbdaf"/><stop offset="0.82" stop-color="#ff6066"/></linearGradient><linearGradient id="linear-gradient-2" x1="26.18" y1="1156.21" x2="48.14" y2="1165.11" xlink:href="#linear-gradient"/><linearGradient id="linear-gradient-3" x1="43.98" y1="1159.77" x2="65.94" y2="1168.67" xlink:href="#linear-gradient"/><linearGradient id="linear-gradient-4" x1="66.89" y1="1158.8" x2="109.68" y2="1163.36" xlink:href="#linear-gradient"/><linearGradient id="linear-gradient-5" x1="46.73" y1="1108.49" x2="30.05" y2="1036.59" xlink:href="#linear-gradient"/><linearGradient id="linear-gradient-6" x1="-6987.68" y1="366.89" x2="-7043.91" y2="420.54" gradientTransform="matrix(-1, 0.03, 0.03, 1, -6865.01, 72.54)" xlink:href="#linear-gradient"/><linearGradient id="linear-gradient-7" x1="-6976.33" y1="327.73" x2="-7026.63" y2="440.91" gradientTransform="matrix(-1, 0.03, 0.03, 1, -6865.01, 72.54)" xlink:href="#linear-gradient"/><linearGradient id="linear-gradient-8" x1="-7267.83" y1="357.11" x2="-7231.47" y2="398.8" gradientTransform="matrix(-1, 0.03, 0.03, 1, -6865.01, 72.54)" xlink:href="#linear-gradient"/><linearGradient id="linear-gradient-9" x1="-7281.94" y1="319.91" x2="-7247.53" y2="392.72" gradientTransform="matrix(-1, 0.03, 0.03, 1, -6865.01, 72.54)" xlink:href="#linear-gradient"/><radialGradient id="radial-gradient" cx="8828.24" cy="404.87" r="33.95" gradientTransform="translate(-8630.08 121.67) rotate(-1.58)" gradientUnits="userSpaceOnUse"><stop offset="0" stop-color="#ff8084"/><stop offset="0.42" stop-color="#ffa19a"/><stop offset="0.69" stop-color="#ffb8a9"/><stop offset="1" stop-color="#ffbdaf"/></radialGradient><radialGradient id="radial-gradient-2" cx="9005.58" cy="393.48" r="29.51" gradientTransform="translate(-5010.54 -6956.06) rotate(50.75)" xlink:href="#radial-gradient"/><linearGradient id="linear-gradient-10" x1="8855.64" y1="-1234.06" x2="8851.13" y2="-1258.07" gradientTransform="matrix(0.86, 0.36, -0.39, 0.92, -7805.17, -1714.51)" xlink:href="#linear-gradient"/><linearGradient id="linear-gradient-11" x1="8919.79" y1="334.08" x2="8919.79" y2="449.14" gradientTransform="translate(-8630.08 121.67) rotate(-1.58)" xlink:href="#linear-gradient"/><linearGradient id="linear-gradient-12" x1="292.22" y1="-565.24" x2="364.67" y2="-674.56" gradientTransform="translate(6.23 879.25) rotate(15.02)" xlink:href="#linear-gradient"/><linearGradient id="linear-gradient-13" x1="110.16" y1="-1139.27" x2="106.55" y2="-1095.96" gradientTransform="translate(-90.52 1328.34) rotate(22.74)" xlink:href="#linear-gradient"/><linearGradient id="linear-gradient-14" x1="284.75" y1="-646.15" x2="280.86" y2="-599.55" gradientTransform="translate(6.23 879.25) rotate(15.02)" xlink:href="#linear-gradient"/><linearGradient id="linear-gradient-15" x1="328.1" y1="-553.39" x2="417.4" y2="-496.12" gradientTransform="translate(6.23 879.25) rotate(15.02)" xlink:href="#linear-gradient"/></defs><title>Asset 2</title><g id="Layer_2" data-name="Layer 2"><g id="Objects"><g id="Office_Staff" data-name="Office Staff"><path class="cls-1" d="M233.5,345.27l-20.9,79.38s54.37,84.19,82.79,72.19S328.23,435,328.23,435L339,364.21Z"/><path class="cls-2" d="M53.55,1853.17s-9.49,47.46-8.63,55.22-19,38-8.62,50,49.17,21.57,95.76,9.49c0,0,12.94-10.35,7.77-40.55s-4.32-68.16-4.32-68.16S80.3,1847.13,53.55,1853.17Z"/><path class="cls-3" d="M43.32,1956.11c-5.68-1-8.42-5-9.89-9.81-.45,4.77.22,9,2.87,12.13,10.35,12.08,49.17,21.57,95.76,9.49,0,0,6.34-5.09,8.37-18.51C116.22,1974.52,75.53,1965.32,43.32,1956.11Z"/><path class="cls-2" d="M321,1857.49s-13.8,33.64-8.62,41.41,29.33,13.8,38,13.8,24.15,0,35.37,14.67,75.06,13.8,93.18,12.94S507.36,1930,507.36,1930s-4.32-20.71-19-29.33-47.45-20.71-62.12-60.4l-98.35-6.9Z"/><path class="cls-3" d="M403.32,1925.11c-14-2-19-17-31-22-16-6-34-5-49-16a28.78,28.78,0,0,1-9.09-10.06c-2.54,8.88-4.28,18.21-1.85,21.85,5.17,7.76,29.33,13.8,38,13.8s24.15,0,35.37,14.67,75.06,13.8,93.18,12.94S507.36,1930,507.36,1930a55.8,55.8,0,0,0-2.72-8.49,31.39,31.39,0,0,1-5.32,2.64C469.32,1936.11,436.32,1931.11,403.32,1925.11Z"/><path class="cls-4" d="M391,985.48s33.88,116,35.19,173.32-11.73,394.86-9.13,448.29,6.52,121.19,11.73,138.13S434,1845.57,434,1845.57s-31.27-2.61-62.55,20.85-58.64,9.12-58.64,9.12-1.3-202-9.12-269.76-49.52-334.91-49.52-334.91L232,990.69Z"/><path class="cls-5" d="M294.32,1146.11c-16.7,1.71-33.27,2.59-49.81,2.94l9.63,121.82s5.05,32.4,12,77.48c6.33-31.2,12.4-61.26,17.2-93.24C289.32,1218.11,294.32,1183.11,294.32,1146.11Z"/><path class="cls-4" d="M349.27,989.39l-243.69,1.3s-28.67,196.78-35.19,261.94,0,183.74-1.3,241.08-20.72,315-20.72,387.93c0,0,48.7-30.67,89.73,6.91,0,0,4-36.47,15.69-112S264.56,1251.32,272.38,1237,349.27,989.39,349.27,989.39Z"/><path class="cls-6" d="M437.23,677.93s90.8,51.43,121.1,47.52,29.72-42.36,25.81-48.22S448.57,493.79,448.57,493.79L405,581.17Z"/><path class="cls-6" d="M198.4,428.41c-1.55,2.06-37.58,16.47-54.57,23.68S79,469.59,66.1,474.74,52.72,485,52.72,485s58.68,211.06,62.8,233.19-5.66,206.94-11.84,233.19-32.43,173.48-27.8,185.83,182.74,4.12,211.06,1.54,58.16-3.08,65.89-55.59c0,0,3.08,43.75,25.73,49.93s95.24-20.07,95.24-20.07-17.51-269.74-20.08-287.24S467.1,602.4,464.53,578.72s-16-84.93-16-84.93-92.14-25.23-101.92-29.86-51-12.36-51-12.36Z"/><path class="cls-7" d="M314.32,683.11c11-30,19-60,27-92,9.07-42.36,11.29-83,14-124.09a91.24,91.24,0,0,1-8.66-3.09c-9.78-4.63-51-12.36-51-12.36L198.4,428.41a15,15,0,0,1-3.48,2c13.5,33.05,27.34,65.47,44.4,98.69C266.32,580.11,295.32,629.11,314.32,683.11Z"/><polygon class="cls-4" points="287.48 488.12 279.14 623.18 313.31 678.78 335.9 625.49 301.73 486.5 287.48 488.12"/><path class="cls-4" d="M292.15,451l3.06-.34s13.34.33,15.58,4.79,5.1,15,5.1,15l-12.76,26.79-15.3.32-24.24-33.49L284,449.42Z"/><path class="cls-8" d="M293.11,451.06s-67.43-46.33-70.52-51.48a11.2,11.2,0,0,1-1-9.78l-16,29.34s25.23,79.79,25.74,81.34Z"/><path class="cls-8" d="M297.75,450.55l32.43-24.71s3.6,6.69,3.6,8.75,3.09,60.74,3.09,60.74Z"/><path class="cls-9" d="M207.15,413.48s10.81,32.95,26.77,62.8,55.59,130.24,61.25,142.59,21.11,68.47,21.11,68.47-40.15-57.14-54-73.1-105.53-120.45-106.56-122,21.62-17,21.62-17l-21.62-7.72L166,439.74s17-4.12,24.19-11.84A118.27,118.27,0,0,1,207.15,413.48Z"/><path class="cls-9" d="M333.78,434.59s3.6,90.08-1.54,118.91-23.68,137.44-20.59,153.4c0,0,18-57.66,30.37-74.13s61.25-109.13,58.68-134.35l-22.65-14.93,11.84-2.57S350.25,453.12,333.78,434.59Z"/><ellipse class="cls-9" cx="327.41" cy="735.78" rx="8.61" ry="9"/><ellipse class="cls-9" cx="333.41" cy="859.63" rx="8.61" ry="9"/><path class="cls-9" d="M311.48,705.3s.24,72.65,4.19,137.56c3.49,57.32,8.58,109.52,11.88,132.63,7,49.28,25.63,108.59,25.63,108.59s-28.44-115.73-32.95-224.62C315.82,753,311.48,705.3,311.48,705.3Z"/><path class="cls-9" d="M225.51,840.77s7.09,48.33-2.57,53.48-118.56,36.08-118.56,36.08-3.22-34.15,1.93-45.74S225.51,840.77,225.51,840.77Z"/><path class="cls-9" d="M421.1,839.82s.64,45.74,7.73,48.32,34.8,12.24,34.8,12.24l-4.51-47.68S437.21,841.75,421.1,839.82Z"/><path class="cls-10" d="M3.84,1143.56s10.68,26.1,23.73,31.44a23,23,0,0,0,22.55-2.37l-16-31.45Z"/><path class="cls-11" d="M21.64,1147.12s10.68,26.1,23.74,31.44a23,23,0,0,0,22.54-2.37l-16-31.45Z"/><path class="cls-12" d="M66.14,1134.06s-2.37,24.33,3,25.52,14.84-7.72,21.36-8.31,10.68,10.09,10.68,10.09-14.24,23.73-29.67,22.55-13.64-5.35-13.64-5.35-16.62-19-18.4-30.26S66.14,1134.06,66.14,1134.06Z"/><path class="cls-13" d="M70.89,1077.1s18.4,20.77,26.11,33.23,16,65.86,6.53,68.23-11.87,1.79-14.84-10.68-5.34-27.88-10.08-31.44-12.47-2.38-12.47-2.38-9.81,23.68-16,23.74c-20.17.19-43.91,5.93-47.47-16s2.38-26.71,4.16-47.47c1.6-18.7,3.56-27.3,3.56-27.3l60.52-3.56Z"/><path class="cls-8" d="M7.05,1045.61s-4,47.82-1.62,50.25,21.07-9.72,75.38-7.29c0,0,0-35.67-5.67-51.07S7.05,1045.61,7.05,1045.61Z"/><path class="cls-6" d="M57.74,478.89s-8.16,2.72-19.7,49.59S3.4,908.17,2,929.9s-2,131.78-2,131.78,46.19-13.59,65.21-9.51,27.17,5.43,27.17,5.43-1.36-72,6.11-154.19,27.85-253.35,23.77-273S93.73,473.12,57.74,478.89Z"/><path class="cls-2" d="M107,90.05C185.24,29.35,268.05,8.5,315.71,20.43c18.4,4.6,48.84,18.42,72.85,32C415,67.32,419.61,74,421.78,77.75c8.68,15-.09,19.74-2.91,78.32-.49,10.31-1.24,31.34-11.82,55.34h0c-125.85,69.84-236.88,93.84-271.06,54-13.38-15.58-18.42-44.93-24.34-79.33A398.65,398.65,0,0,1,107,90.05Z"/><path class="cls-14" d="M150.23,220c-1.74-1.92-17.72-6.76-31.1-1.31-7.72,3.15-14.57,9.72-17.3,22.28-5.8,26.61,18.4,46.66,42.07,48.74a39.71,39.71,0,0,0,19.73-3Z"/><path class="cls-15" d="M149.75,236.17c-9.32-9.24-37-3-33.41,10.34s12.4,2.92,20.36,2.7,13.43,13.76,9.57,18.58-14.36,4.74-9.52,9.32,14.94,16.26,19.52-1.63S157.57,243.92,149.75,236.17Z"/><path class="cls-16" d="M393.32,197.61c1.63-2,17.32-7.73,31-3,7.88,2.72,15.08,8.9,18.51,21.29,7.25,26.25-15.8,47.61-39.32,51a39.69,39.69,0,0,1-19.86-1.9Z"/><path class="cls-17" d="M394.69,213.71c8.8-9.74,36.82-5,33.94,8.49s-12.22,3.6-20.19,3.82-12.64,14.48-8.53,19.07,14.6,3.95,10,8.78-14,17.06-19.58-.54S387.31,221.89,394.69,213.71Z"/><path class="cls-18" d="M147.18,170.12c1.55,36.2,4.3,66.67,6.85,89.68,5.81,52.5,10.83,68.89,19.8,84.8,4.33,7.68,15,26.13,35.07,41,43.52,32.28,115.74,36.35,157-.34,21.26-18.91,30.1-44.92,33.22-54.11,4.15-12.2,5.29-26.53,7.41-54.67,5.45-72.39-.42-107.15-5.84-129.29v0c-4.57-11.22-13.84-28.73-32.19-40-10.29-6.33-23.44-10.71-74.48-7.45-54.76,3.51-82.15,5.26-103.81,19.49C167.87,133.92,154.8,154.16,147.18,170.12Z"/><path class="cls-2" d="M317.76,189.92a6,6,0,0,1-5.07-9.2c5.92-9.41,16.72-15.74,30.42-17.83,14.7-2.25,29.67,1,38.14,8.18a6,6,0,1,1-7.79,9.13c-5.74-4.9-17.48-7.14-28.54-5.45-10.05,1.54-18.1,6-22.07,12.36A6,6,0,0,1,317.76,189.92Z"/><circle class="cls-19" cx="205.8" cy="282.72" r="28.74"/><path class="cls-18" d="M211.53,279a5.62,5.62,0,1,1-5.78-5.46A5.64,5.64,0,0,1,211.53,279Z"/><circle class="cls-20" cx="382.76" cy="266.44" r="24.98" transform="translate(-62.05 406.59) rotate(-52.33)"/><path class="cls-18" d="M387.74,263.23a4.89,4.89,0,1,1-5-4.75A4.89,4.89,0,0,1,387.74,263.23Z"/><path class="cls-21" d="M266.22,356.43c.19.07,14.87,17.62,41.79,5.76-2.12.93-2.76,6.24-6.64,9.51-8.75,7.39-19.64,4.32-21.5,3.79-3.11-.87-8.48-2.39-11.62-7.88A18.49,18.49,0,0,1,266.22,356.43Z"/><path class="cls-22" d="M361.3,66.18s-.87-18.12-28.69-30.4S249.84,47,198.76,45.14c-36.85-1.32-63-16.62-75.26-27a70.85,70.85,0,0,0,27.29,6.28c35.5.88,74.32-6.87,111.29-18C292.19-2.7,329.85-5,355.45,19.56c10.25,9.85,17.12,22.88,20.83,36.6s4.3,28.76-1,42c-.18.42-.38.83-.56,1.25-7.5,17.24-23.68,28.25-42,34.33C377.24,115.07,361.3,66.18,361.3,66.18Z"/><path class="cls-2" d="M121.65,20.65a13,13,0,0,1,.5-3.12c.45.21.9.39,1.35.59,12.29,10.4,38.41,25.7,75.26,27,51.08,1.82,106-21.64,133.85-9.36s28.69,30.4,28.69,30.4,15.94,48.89-28.64,67.54a120.58,120.58,0,0,1-28.89,5.67,181.78,181.78,0,0,1-114.55-30.64A180.74,180.74,0,0,1,146.58,68C139.13,58.11,120.9,34.79,121.65,20.65Z"/><path class="cls-23" d="M363.74,229c.36,13-7.61,24.8-18.67,25.11S325.31,244,325,231.05s7.92-22.5,19-22.81S363.38,216.05,363.74,229Z"/><ellipse class="cls-24" cx="344.34" cy="232.75" rx="13.39" ry="16.67" transform="translate(-6.3 9.6) rotate(-1.58)"/><path class="cls-23" d="M351.25,225.19a6.09,6.09,0,1,1-6.25-5.92A6.08,6.08,0,0,1,351.25,225.19Z"/><path class="cls-24" d="M325.46,224.62c2.86-11,10.86-19.06,23.11-16.66,7.65,1.5,13.83,7.12,14.32,15.15a17.68,17.68,0,0,0-7.64-10.76C344.29,205.41,328.71,212.15,325.46,224.62Z"/><path class="cls-23" d="M253.22,246.87c.36,13-7.61,24.81-18.67,25.11s-19.76-10.1-20.12-23.06,7.92-22.51,19-22.81S252.86,233.91,253.22,246.87Z"/><ellipse class="cls-24" cx="233.81" cy="250.61" rx="13.39" ry="16.67" transform="translate(-6.83 6.55) rotate(-1.58)"/><path class="cls-23" d="M240.73,243.06a6.09,6.09,0,1,1-6.25-5.92A6.09,6.09,0,0,1,240.73,243.06Z"/><path class="cls-24" d="M214.88,242.63a19.41,19.41,0,0,1,5.73-12c.43-.38.82-.81,1.29-1.15C232.29,222.07,252,226,252.32,241c-1.21-6.2-6.46-11.23-12.56-12.86C230.13,225.55,216,231.37,214.88,242.63Z"/><path class="cls-25" d="M306.85,220.71s16.42,42.06,12.36,60.14-35.22,22.91-41-3.6-8.18-56.68,5.06-63.45C298.47,206,306.85,220.71,306.85,220.71Z"/><ellipse class="cls-18" cx="309.73" cy="268.21" rx="6.57" ry="8.56" transform="matrix(0.99, -0.16, 0.16, 0.99, -38.83, 52.87)"/><path class="cls-26" d="M274.81,251.69c.32,3.69.67,7.34,1.2,11,.28,1.81.55,3.61.91,5.4a51.1,51.1,0,0,0,3.7,12c2,4.13,5.2,6.93,7.76,10.37-4.78-2.05-8.28-6.72-10.34-11.34a46.19,46.19,0,0,1-3.26-13.46C274.26,260.93,275.2,256.24,274.81,251.69Z"/><path class="cls-2" d="M183.44,204.86a6,6,0,0,1-4.36-10.12c23-24.33,64.91-9.87,66.68-9.24a6,6,0,0,1-4,11.31c-.49-.17-36.36-12.43-54,6.17A6,6,0,0,1,183.44,204.86Z"/><path class="cls-24" d="M405.76,192.51Z"/><path class="cls-24" d="M413.49,186.58a3,3,0,0,0-3.69,2.09h0c-.09.15-.18.31-.27.45l-.07.09c-.21.24-.42.47-.65.69-.47.48-1,.93-1.48,1.37l-.79.64-.41.33c-.08.07-.26.19-.36.26l.27-.18c-1.31.86-2.54,1.88-3.82,2.79s-2.43,1.71-3.63,2.59c-.77.56-1.58,1.14-2.32,1.77A51.26,51.26,0,0,0,385.5,189a50.65,50.65,0,0,0-77.38,24.28,4.15,4.15,0,0,0-1.22-.33c-5-.5-10.14.36-15,1.18a168.23,168.23,0,0,0-16.79,3.75c-2.29.63-4.56,1.32-6.79,2.1a50.58,50.58,0,0,0-88.16,14.6c-9.35-5.95-18.66-12-27.75-18.31q-1.87-1.31-3.72-2.64l-1.48-1.1-.5-.37-.46-.37a3.11,3.11,0,0,0-4.25,0c-1,1.05-1.27,3.23,0,4.25,4.39,3.48,9.06,6.6,13.7,9.73q8.13,5.46,16.37,10.74,3.22,2.08,6.46,4.14a50.23,50.23,0,0,0-.37,18.12h0a50.61,50.61,0,1,0,93.61-33.65,147.48,147.48,0,0,1,16.42-4.21c1.82-.37,3.64-.72,5.47-1s3.12-.5,4.75-.68a41.59,41.59,0,0,1,8.12-.28,50.42,50.42,0,0,0-.57,19.18h0a50.6,50.6,0,1,0,93.69-33.56c.3-.31.63-.6,1-.88s1-.74.15-.13c.26-.18.5-.38.76-.56,1.23-.92,2.5-1.79,3.75-2.68a58.7,58.7,0,0,0,7.75-6.09,9.09,9.09,0,0,0,2.59-3.94A3,3,0,0,0,413.49,186.58ZM264.26,276.79a44.61,44.61,0,0,1-80.21-19h0a44.61,44.61,0,1,1,80.21,19Zm127.8-20.66a44.61,44.61,0,0,1-80.21-19h0a44.61,44.61,0,1,1,80.21,19Zm17.63-67.2-.11.13Zm-.25.33Zm.46-.76c.1-.23.05-.09,0,0Z"/><path class="cls-27" d="M346.73,321.43c-31.68,12.61-70.09,10.06-101.94-8.74,0,0,22.52,46.87,55.59,41.76s46.35-33,46.35-33"/><path class="cls-23" d="M332.18,332.28a88.2,88.2,0,0,1-43.77,6.46c-10.59-1.19-24-2.94-31.94-15.59a35.55,35.55,0,0,1-2.94-5.84,118,118,0,0,0,79.73,8.44Z"/><path class="cls-24" d="M333.07,325.07a115.45,115.45,0,0,1-61.48-1.81,121.89,121.89,0,0,1-16.9-6.63c-.52-.25-3,.13-2.61,1.07a31.56,31.56,0,0,0,11.08,14.47,39.58,39.58,0,0,0,15,6A93.66,93.66,0,0,0,309,339.27a97.11,97.11,0,0,0,23.55-6.34c.56-.17,1.05-.47,1.12-.84.35-2.18.71-4.35,1.07-6.53C334.83,324.77,333.45,325,333.07,325.07Zm-37.86,13.35a102.33,102.33,0,0,1-13.08-1.4,42,42,0,0,1-14.75-5,29.53,29.53,0,0,1-11.09-12.25,121.3,121.3,0,0,0,59.5,9.68,115.43,115.43,0,0,0,15.87-2.62c-.29,1.73-.57,3.46-.86,5.19A87.79,87.79,0,0,1,295.21,338.42Z"/><path class="cls-24" d="M348.14,321.05a.43.43,0,0,0-.05-.13c-.26-.39-1.59,0-1.87.13-25,9.91-53.31,9.79-78.63,1a119.05,119.05,0,0,1-21.44-9.91,1.28,1.28,0,0,0-.59-.07q1.35-2,2.61-4.13c.94-1.56,1.87-3.11,2.81-4.81a15.52,15.52,0,0,0-4.65,3.35,28.61,28.61,0,0,0-3.56,4.39,38,38,0,0,0-2.75,4.85,30.49,30.49,0,0,0-2,5.3,26.17,26.17,0,0,0,4-4c.7-.86,1.36-1.75,2-2.64a103.47,103.47,0,0,0,7,11.55c5.74,8.33,12.57,16.21,21,22a43.72,43.72,0,0,0,14.45,6.62A39.37,39.37,0,0,0,304,354.3a66,66,0,0,0,32.54-17.66,67.71,67.71,0,0,0,8.11-9.7,27.24,27.24,0,0,0,3.34-5.48c0-.09.09-.18.13-.27A.11.11,0,0,0,348.14,321.05Zm-11.38,12.8a61.62,61.62,0,0,1-28.19,18.24c-5.79,1.71-11.8,2.71-17.8,1.65A40.15,40.15,0,0,1,276.39,348c-8.43-5.31-15.35-12.87-21.13-20.91-2.2-3.06-4.25-6.23-6.15-9.48-.33-.57-.64-1.16-1-1.75a120.17,120.17,0,0,0,76.78,12.25,113.72,113.72,0,0,0,19.8-5.33A56.08,56.08,0,0,1,336.76,333.85Z"/><path class="cls-28" d="M478.83,458.73l-1.49-91.85L461.8,362.1c-4.15-13.87-13.67-45-16.95-50.17-4.24-6.67-7.64-27.68-13.58-31.78s-8.14,7.86-7.37,18.12,16.28,66.67,16.28,66.67a16.28,16.28,0,0,0,.14,7c-1.6,7-8.17,13.45-9.55,13.08s-3-24.42-6.86-32.49-17.24-10.66-19.22-5.16,5.65,27.65,6.45,56.5,21.73,37,21.73,37l9.3,47.72,50.3,5.45Z"/><path class="cls-24" d="M415.87,433.21l-23.31-13.84c-4.49-2.66-7.09-10.85-5.78-18.19l24.83-138.43c1.32-7.33,6.07-11.16,10.56-8.49l23.31,13.84c4.5,2.66,7.1,10.85,5.78,18.19L426.43,424.71C425.12,432.05,420.36,435.87,415.87,433.21Z"/><path class="cls-29" d="M410.45,424.59,389.6,410.8c-2.23-1.48-3.43-6.14-2.67-10.37l24.56-136.94c.76-4.23,3.2-6.49,5.43-5l20.85,13.79c2.23,1.47,3.43,6.13,2.67,10.36L415.88,419.57C415.12,423.8,412.67,426.06,410.45,424.59Z"/><path class="cls-30" d="M467.91,383.87s13.18-26.76,10-34.44-7.81-29.19-10.55-30.83-29.7-17.83-32.9-17.21-22-2.37-23,.13-2.49,14.11,8.3,15.21,31.11,8.64,32.18,9.58S467.91,383.87,467.91,383.87Z"/><path class="cls-31" d="M475.46,394.51s10.17-30.43,5.71-38.16-12.55-30-15.7-31.35-34.24-14.72-37.56-13.6-23.79.65-24.55,3.47-.61,15.41,11.05,15,34.41,4.71,35.69,5.56S475.46,394.51,475.46,394.51Z"/><path class="cls-32" d="M501.53,494s-16.76-59.26-17-63.86,2.59-54.58,0-61.81-25.42-34.45-35.74-37.22-41.76-1.66-40.55,3.19,5.08,12.92,22,7.91l17.06,7.59,10.63,18.43s-3.86,12-7.94,25.38c-5.61,18.34-7.55,24.38-9.32,33.31A160.29,160.29,0,0,0,438,444.25a121.3,121.3,0,0,0,4.65,44.47Z"/><path class="cls-8" d="M438.39,482.53,423,451.69a107.34,107.34,0,0,1,32.86-20.06s4.76-1.8,32.08-9.12h0l21.75,43.06S477.2,511.55,438.39,482.53Z"/><path class="cls-7" d="M430.3,466.36l8.09,16.17c38.81,29,71.26-17,71.26-17L499,444.52C481.37,462.35,455.56,471.93,430.3,466.36Z"/><path class="cls-33" d="M429.3,470.73a49.63,49.63,0,0,0,37.86,3.68c21.07-6.14,31.13-32.46,31.13-32.46S582,584.53,587.18,615.74s15.6,43.14,2,78-22.21,32-33.37,27.46-58.14-26.8-64.41-46.52-21.21-69.62-29.29-105.9S429.3,470.73,429.3,470.73Z"/></g></g></g></svg>