<svg xmlns="http://www.w3.org/2000/svg" xmlns:xlink="http://www.w3.org/1999/xlink" viewBox="0 0 420.32 1879.57"><defs><style>.cls-1{fill:#333;}.cls-2{fill:url(#linear-gradient);}.cls-3{fill:url(#linear-gradient-2);}.cls-4{fill:url(#linear-gradient-3);}.cls-5{fill:url(#linear-gradient-4);}.cls-6{fill:url(#linear-gradient-5);}.cls-7{fill:url(#linear-gradient-6);}.cls-8{fill:url(#linear-gradient-7);}.cls-9{fill:#fff;}.cls-10{fill:#cdd3d9;}.cls-11{fill:url(#linear-gradient-8);}.cls-12{fill:url(#linear-gradient-9);}.cls-13{fill:url(#linear-gradient-10);}.cls-14{fill:url(#linear-gradient-11);}.cls-15{fill:#d09582;}.cls-16{fill:url(#radial-gradient);}.cls-17{fill:#ffbdaf;}.cls-18{fill:url(#radial-gradient-2);}.cls-19{fill:url(#linear-gradient-12);}.cls-20{fill:#ff6066;}.cls-21{fill:#0a1a33;}.cls-22{fill:url(#linear-gradient-13);}.cls-23{fill:#964e38;}.cls-24{fill:#585858;}.cls-25{fill:#188fd9;}.cls-26{fill:#2a77c2;}.cls-27{fill:url(#linear-gradient-14);}.cls-28{fill:url(#linear-gradient-15);}.cls-29{fill:url(#linear-gradient-16);}.cls-30{fill:#e9ecee;}.cls-31{fill:#d6dbdf;}</style><linearGradient id="linear-gradient" x1="240.85" y1="352.3" x2="245.33" y2="418.62" gradientUnits="userSpaceOnUse"><stop offset="0.02" stop-color="#b96342"/><stop offset="0.42" stop-color="#c17559"/><stop offset="1" stop-color="#d09582"/></linearGradient><linearGradient id="linear-gradient-2" x1="156.49" y1="1458.43" x2="235.01" y2="1494.25" xlink:href="#linear-gradient"/><linearGradient id="linear-gradient-3" x1="116.19" y1="1301.29" x2="142.77" y2="1518.42" xlink:href="#linear-gradient"/><linearGradient id="linear-gradient-4" x1="379.82" y1="1100.56" x2="385.74" y2="1085.02" xlink:href="#linear-gradient"/><linearGradient id="linear-gradient-5" x1="376.85" y1="1111.24" x2="383.66" y2="1093.37" xlink:href="#linear-gradient"/><linearGradient id="linear-gradient-6" x1="360.06" y1="1081.41" x2="407.7" y2="1075.03" xlink:href="#linear-gradient"/><linearGradient id="linear-gradient-7" x1="361.32" y1="1030.71" x2="384.29" y2="1057.94" xlink:href="#linear-gradient"/><linearGradient id="linear-gradient-8" x1="131.15" y1="240.65" x2="73.16" y2="225.66" xlink:href="#linear-gradient"/><linearGradient id="linear-gradient-9" x1="117.44" y1="236.1" x2="19.71" y2="245.22" xlink:href="#linear-gradient"/><linearGradient id="linear-gradient-10" x1="323.03" y1="220.76" x2="360.82" y2="212.94" xlink:href="#linear-gradient"/><linearGradient id="linear-gradient-11" x1="367.35" y1="218.41" x2="282.65" y2="225.58" xlink:href="#linear-gradient"/><radialGradient id="radial-gradient" cx="162.71" cy="248.76" r="44.52" gradientTransform="translate(263.33 -20.08) rotate(53.23)" gradientUnits="userSpaceOnUse"><stop offset="0" stop-color="#ff8084"/><stop offset="0.52" stop-color="#de9387"/><stop offset="0.69" stop-color="#d29a88"/><stop offset="1" stop-color="#d09582"/></radialGradient><radialGradient id="radial-gradient-2" cx="311.95" cy="241.48" r="34.77" gradientTransform="translate(265.56 -154.32) rotate(45)" gradientUnits="userSpaceOnUse"><stop offset="0" stop-color="#ff8084"/><stop offset="0.52" stop-color="#de9387"/><stop offset="0.69" stop-color="#d29a88"/><stop offset="1" stop-color="#d09582"/></radialGradient><linearGradient id="linear-gradient-12" x1="240.66" y1="323.67" x2="242.2" y2="288.75" gradientUnits="userSpaceOnUse"><stop offset="0" stop-color="#ffbdaf"/><stop offset="0.82" stop-color="#ff6066"/></linearGradient><linearGradient id="linear-gradient-13" x1="252.79" y1="286.03" x2="238.13" y2="205.89" xlink:href="#linear-gradient"/><linearGradient id="linear-gradient-14" x1="38.3" y1="1116.87" x2="23.37" y2="1120.19" gradientTransform="matrix(1, -0.02, 0.02, 1, -17.1, -34.46)" xlink:href="#linear-gradient"/><linearGradient id="linear-gradient-15" x1="54.07" y1="1127.26" x2="40.03" y2="1130.38" gradientTransform="matrix(1, -0.02, 0.02, 1, -17.1, -34.46)" xlink:href="#linear-gradient"/><linearGradient id="linear-gradient-16" x1="46.18" y1="1027.25" x2="53.2" y2="1084.6" gradientTransform="matrix(1, -0.02, 0.02, 1, -17.1, -34.46)" xlink:href="#linear-gradient"/></defs><title>Asset 1</title><g id="Layer_2" data-name="Layer 2"><g id="Objects"><g id="Office_Staff" data-name="Office Staff"><path class="cls-1" d="M79.59,159c-4.83,1.73-2.55,18.31-8.21,19.75-1.26.32-2.44.05-8.13.14a17.66,17.66,0,0,0-2.81.23c-6.68,1.15-11.66,7.18-13.59,13.67S45.44,206.25,46,213c-4.49-3.31-11.48-.33-13.89,4.7s-1.35,11.07.7,16.27,5,10,6.47,15.43c2.07,7.7,1,16.39,5.24,23.16,2.56,4.12,7,7.25,8.06,12,1.53,6.5-3.93,12.62-9.76,15.89s-12.62,5.19-17.22,10c-8.68,9.15-3.62,27,8.57,30.24,4.5,1.19,10.29,1.23,12.3,5.44,3.3,6.92-7.94,11.61-11.06,18.62-3.69,8.28,6.16,17.17,15.22,17,3.89-.08,8.57-.87,11,2.18,3.05,3.85-.71,9.13-2.74,13.61a18.69,18.69,0,0,0,23.35,25.31c4-1.43,7.53-4.2,11.72-4.4,4.53-.22,8.56,2.6,12.82,4.15,10.61,3.85,23.7-1.29,28.85-11.33,1.11-2.16,2.13-4.74,4.41-5.57,2-.73,4.21.22,6.18,1.07a77.09,77.09,0,0,0,16.94,5.09c2.55.46,5.25.77,7.66-.19,8.72-3.46,6.36-19.33,15.22-22.39,4.5-1.56,9.4,1.34,14.13.77,4.37-.53,7.76-3.86,11.4-6.33a33,33,0,0,1,35.9-.21c3.81-9.63,17-12.74,26.49-8.66s15.89,13.2,20.58,22.44c2.73,5.39,7.45,12.05,13.11,9.93,1.76-.66,3.1-2.11,4.76-3,8-4.15,18,6.6,26.05,2.52,2.47-1.25,4.1-3.69,5.62-6l15.22-23.4c1.55-2.39,3.23-4.89,5.79-6.13,2.25-1.1,4.84-1.07,7.33-1.33,16.2-1.71,29-18.87,26-34.89-.94-5-3.17-9.81-3.38-14.91-.42-10.38,7.53-19.61,7.57-30,0-11.36-5.81-10.71-6.25-23-.57-15.7,9.27-20.93,5.57-31.62-2.59-7.46-7.85-6.2-11.37-14.46-5.09-11.95,4.24-18.46,0-27.9-5.85-13-30.88-16.8-36.56-17.66-4.74-.72-10.31-1-16.81-4.7-4.35-2.49-7.34-6.85-11.52-9.62-8.86-5.88-20.58-3.42-31.14-4.67-12.58-1.48-23.84-8.39-36.11-11.53-36-9.2-72.72,14.94-109.73,12.08-4-.31-8.54-1.93-15-1.07-19,2.54-25,18.83-36.28,16.76C87.65,170.94,84,157.45,79.59,159Z"/><path class="cls-2" d="M181.07,322s10,48.56,4,63.08-16.52,35.55-12.51,57.58S274.7,595.89,293.22,580.87s31-91.62,31-100.14-34-51.07-35-58.58,1-83.11,1-83.11Z"/><path class="cls-1" d="M68.18,1762.59c.84.92,8.64,46.18,3.18,67.25L77.6,1833l8.59-18.73Z"/><path class="cls-1" d="M176.7,1763.51s-17.17,7.81-17.17,19.51-1.08,43.74-1.08,43.74l-15.3-10.19,4.68-75.68Z"/><path class="cls-3" d="M308.55,1171s-61.3,188.71-57.17,220.4-10.33,161.16-9.64,188.71-4.13,133.61,3.44,149.45,12.4,63.37,22.73,75.08,35.81,17.22,44.77,20.66,8.26,20.66,8.26,20.66-22.73,9-40.63,9.64-46.15-1.37-57.17-11S208,1797,182.51,1777.06s-47.53-26.86-51.66-40,9-46.83,24.8-51c0,0,31.68-19.28,24.79-49.58s-44.08-107.1-13.08-236.58,15.15-228.66,15.15-228.66Z"/><path class="cls-1" d="M312.68,1825.27c-8.72-3.36-33.12-8.67-43.93-19.76-11.38,6.9-23.16,8.85-33.3-2.75-13-17-17-41-37-52-14-8-31-16-39-30-6.66-12.36-3.36-29.25,5.58-42.06a62.57,62.57,0,0,1-9.38,7.44c-15.84,4.14-28.93,37.88-24.8,51s26.17,20,51.66,40,29.61,57.85,40.63,67.49,39.26,11.71,57.17,11,40.63-9.64,40.63-9.64S321.63,1828.71,312.68,1825.27Z"/><path class="cls-4" d="M209.86,1202.94s-6.52,186.36-13,209.81-23.46,57.34-30,110.77-35.19,95.13-28.67,159c0,0,9.88,93.17,23.66,125.54s24.1,42,16.53,57.85-31,17.91-54.41,6.2-36.51-20.66-37.89-22.73-9-53-17.9-86.78,1.38-32.37,11-58.54-4.82-132.92-6.89-157.72S62,1465.06,98.48,1394.12,88.15,1193,88.15,1193Z"/><path class="cls-1" d="M158.45,1826.76c-27,7-53-14-68-38-16.56-29.22-1.82-62.24-9.36-92.59a42.68,42.68,0,0,1-1.89,7.88c-9.64,26.17-20,24.8-11,58.54s16.53,84.72,17.9,86.78,14.47,11,37.89,22.73,46.83,9.64,54.41-6.2c6.53-13.66-.27-22.73-11.1-45.75C164.65,1823.33,161.77,1825.77,158.45,1826.76Z"/><path class="cls-1" d="M114.73,749.44s196.78-9.12,255.42,15.64c0,0,11.73,225.45-9.12,306.25s-62.56,285.39-66.46,306.24S189,1445.33,82.15,1395.81c0,0-48.22-372.7-23.46-486.08S114.73,749.44,114.73,749.44Z"/><path class="cls-5" d="M405.49,1069.49s-17.19,13-19.26,15.34-12-3.07-21,0,4.82,13.42,5.85,13.42,18.57,3.45,18.57,3.45l19.26-18.4Z"/><path class="cls-6" d="M408.08,1076.18s-21.27,14.46-23.82,17-14.89-3.41-25.95,0,5.95,14.89,7.23,14.89,23,3.83,23,3.83l23.83-20.43Z"/><path class="cls-7" d="M409.78,1029.81s13.62,49.77,9.79,58.28-23.4,42.54-40.84,33.18-25.1-14-24.68-16.59,17-5.1,25.53-.85l8.51,4.26s8.93-18.72,10.21-19.15,1.7-28.93-1.28-31S409.78,1029.81,409.78,1029.81Z"/><path class="cls-8" d="M370.22,1025.55s-4.26,12.34,2.13,31.06.42,25.1,2.12,40.84-1.27,21.7,8.94,18.29,12.76-10.63,11.48-26-2.55-20.84,2.13-26,22.12-26.37,15.74-38.71S370.22,1025.55,370.22,1025.55Z"/><path class="cls-9" d="M216.38,419.09s28-1.95,26.71,2-9.12,10.42-1.3,20.85,17.59,14.33,20.85,24.11,9.77,63.85,17.59,71.67,15,21.5,15,21.5,7.82-71,9.12-85.36-5.87-51.47-5.87-51.47,32.58,48.87,51.48,70.37,39.09,104.9,37.14,142.7-14.33,117.93-18.24,119.24-7.17,5.86-18.9,4.56-85.36-10.43-152.47-3.91-26.06-322.54-20.85-327.75S216.38,419.09,216.38,419.09Z"/><path class="cls-10" d="M340.45,727.76c2,11-8,20-18,27-.69.51-1.4,1-2.11,1.44,15,1.29,25.72,2.58,29.61,3,11.73,1.3,15-3.26,18.9-4.56s16.29-81.45,18.24-119.24c.09-1.71.13-3.51.13-5.39C360.94,658.52,334.26,684.48,340.45,727.76Z"/><path class="cls-1" d="M328.73,221.08l24-30.13s11.89-75.26,5.32-105.16c-15.13-68.87-105.16-82.54-151-81-13.47.46-68.83,2.35-104,43.9A120.29,120.29,0,0,0,82.63,84.88c-16.47,45.75-6.93,103.43,21.72,137.38C148.64,274.74,249.9,283.83,328.73,221.08Z"/><path class="cls-11" d="M110.08,201.72c-1.57-1.87-16.48-7-29.27-2.29-7.38,2.7-14.07,8.66-17.07,20.41-6.37,24.88,15.76,44.61,38,47.38a37.51,37.51,0,0,0,18.69-2.16Z"/><path class="cls-12" d="M109.07,216.93c-8.47-9-34.81-4.05-31.84,8.62s11.59,3.17,19.1,3.23,12.19,13.43,8.39,17.84-13.7,4-9.29,8.46,13.53,15.83,18.45-.87S116.18,224.51,109.07,216.93Z"/><path class="cls-13" d="M337.28,190.05c1.35-1.55,14-5.63,24.64-1.51C368.09,190.92,373.63,196,376,206c5,21-13.89,37.28-32.63,39.29a31.44,31.44,0,0,1-15.69-2.07Z"/><path class="cls-14" d="M337.91,202.86c7.25-7.47,29.33-2.91,26.65,7.7s-9.79,2.5-16.11,2.45-10.44,11.11-7.31,14.87,11.46,3.55,7.7,7.25-11.61,13.12-15.51-1S331.82,209.13,337.91,202.86Z"/><path class="cls-15" d="M100.28,144.58c-2.22,24.52-8.93,127.47,60,192.56,14.11,13.32,51,48.15,92.89,39.95,37-7.24,57.19-43.94,66-60C362.46,238.64,340,131.63,340,131.62a76.28,76.28,0,0,0-15-31.05c-37.23-45.32-131.68-42-187.85,1.32A145.43,145.43,0,0,0,100.28,144.58Z"/><path class="cls-1" d="M266.25,176.79a3,3,0,0,1-2-5.21,81,81,0,0,1,25.95-15.21c13.45-4.74,25.62-4.44,35.2.88a3,3,0,1,1-2.91,5.25c-18.6-10.33-44.54,4.63-54.18,13.5A3.05,3.05,0,0,1,266.25,176.79Z"/><circle class="cls-16" cx="151.7" cy="252.72" r="27.11" transform="matrix(0.6, -0.8, 0.8, 0.6, -141.55, 222.96)"/><path class="cls-17" d="M157.23,249.43a5.3,5.3,0,1,1-5.26-5.35A5.29,5.29,0,0,1,157.23,249.43Z"/><circle class="cls-18" cx="319.07" cy="243.4" r="23.56" transform="translate(-78.66 296.91) rotate(-45)"/><path class="cls-17" d="M323.87,240.54a4.61,4.61,0,1,1-4.57-4.65A4.61,4.61,0,0,1,323.87,240.54Z"/><path class="cls-19" d="M202.41,297.33c8.48,25.25,27.26,40.61,43.17,38.67,11.83-1.45,20.78-12.3,23.92-16.1a55,55,0,0,0,12-28.55,43.8,43.8,0,0,1-79.09,6Z"/><path class="cls-20" d="M199.87,287.2c2.89-4.06,17.47,8.69,42.89,8.44,17.19-.17,31.39-6.29,41.28-12a65.21,65.21,0,0,1-7,16.09c-3.44,5.67-9.07,14.94-20.34,20.11a38.58,38.58,0,0,1-13.82,3.46C218.29,324.26,195.89,292.79,199.87,287.2Z"/><path class="cls-21" d="M283.15,283.24c-12.74,7.31-27,11.84-41.8,11.59a76.76,76.76,0,0,1-20.57-3.26c-4.57-1.35-9-3.2-13.45-4.78-2.59-.92-6.76-2.35-8.81.39-1,1.48-.52,3.53,0,5.09a32.3,32.3,0,0,0,4.07,7.76,62.51,62.51,0,0,0,17.22,17c7.43,4.91,16.2,7.94,25.17,6.92a41.43,41.43,0,0,0,25.54-13.17,73.1,73.1,0,0,0,15-27.29C285.79,282.41,283.48,283.05,283.15,283.24Zm-12.39,24a38.48,38.48,0,0,1-21.58,14.48c-16.65,4-32.74-7.84-42.27-20.5a38.08,38.08,0,0,1-5.08-8.55c-.6-1.49-1.54-4.05-.62-5.42h.22l.65.1a27.72,27.72,0,0,1,4.45,1.41c4.7,1.76,9.36,3.56,14.21,4.89A79.1,79.1,0,0,0,264.6,293a95.37,95.37,0,0,0,17.42-7.3A71,71,0,0,1,270.76,307.21Z"/><path class="cls-9" d="M271.05,290.86c4.94-1.63-3.59,8.61-8.18,11.07-7.91,4.25-12.2,4.3-21.17,4.79-6.24.34-16-.28-21.72-2.9s-11.84-7.42-10.23-13.46c0,0,17.93,5.86,32.62,5.86C242.37,296.22,258.21,295.09,271.05,290.86Z"/><path class="cls-21" d="M273.52,291.06c-.18-.76-1.29-.81-1.9-.76a5.61,5.61,0,0,0-1.28.27,122,122,0,0,1-27.06,5.16l-1,.09h-.66c-.39,0-.79,0-1.18,0a76,76,0,0,1-8.12-.72,131.63,131.63,0,0,1-14.46-2.89c-1.82-.47-3.64-1-5.45-1.5l-1.54-.46-.4-.13h0c-.41-.12-1.54-.3-1.69.27-1.63,6.37,4.93,11,9.86,13.44a31.91,31.91,0,0,0,8.77,2.56,67.33,67.33,0,0,0,9.82.85c3.22.05,6.44-.15,9.65-.37a44,44,0,0,0,8.63-1.27,35.42,35.42,0,0,0,8.61-3.62,25.56,25.56,0,0,0,5.12-4.34,22.45,22.45,0,0,0,3.87-5A2.57,2.57,0,0,0,273.52,291.06Zm-6.19,6.25a25.42,25.42,0,0,1-4.69,4,31,31,0,0,1-7.76,3.39,37.26,37.26,0,0,1-7.64,1.25c-2.88.22-5.79.41-8.68.42a68.37,68.37,0,0,1-8.82-.55,33.61,33.61,0,0,1-8.34-2c-5-2-11.75-6.59-10.78-12.74A133.75,133.75,0,0,0,230,295.56c2.81.43,5.63.76,8.46.93a32.34,32.34,0,0,0,4.72.07c3.39-.28,6.78-.7,10.14-1.21a116.51,116.51,0,0,0,18.26-4.13,3.08,3.08,0,0,1-.56,1.49A25,25,0,0,1,267.33,297.31Zm4.6-6.22c.07,0,.1,0,0,0Zm0,0c.08,0,.2,0,0,0Z"/><path class="cls-9" d="M315.07,209.3c-.11,12.23-9.19,23.12-21.19,23s-21-10.22-20.94-22.45,9.43-20.93,21.44-20.83S315.17,197.07,315.07,209.3Z"/><ellipse class="cls-21" cx="293.89" cy="212.14" rx="15.72" ry="14.53" transform="translate(79.26 504.22) rotate(-89.51)"/><path class="cls-9" d="M295,206.29c0,3.17-3,5.72-6.66,5.68s-6.58-2.62-6.55-5.79,3-5.72,6.65-5.69S295,203.12,295,206.29Z"/><path class="cls-21" d="M273.67,204a18,18,0,0,1,7.22-11.55c10.38-7.82,32.84-4.25,33.43,11.3a14.93,14.93,0,0,0-5.51-8.84,21.27,21.27,0,0,0-9.68-4.13C288.52,188.94,277.51,193.49,273.67,204Z"/><path class="cls-21" d="M305.3,190.86s13.84,3.75,16.69-3.39c0,0-.88,11.86-10.66,8.2C305.38,193.44,305.3,190.86,305.3,190.86Z"/><path class="cls-21" d="M311.8,195.52s7.05,4.14,9.74.41c0,0-2.75,6.6-7.9,3.06C310.51,196.84,311.8,195.52,311.8,195.52Z"/><path class="cls-9" d="M197.9,220.62c-.1,12.23-9.16,23.11-21.13,23s-21-10.22-20.88-22.45,9.41-20.93,21.38-20.83S198,208.39,197.9,220.62Z"/><ellipse class="cls-21" cx="176.78" cy="223.46" rx="15.72" ry="14.49" transform="translate(-48.17 398.34) rotate(-89.51)"/><path class="cls-9" d="M178.5,217.07c0,3.17-3,5.72-6.63,5.68s-6.56-2.62-6.54-5.79,3-5.72,6.64-5.69S178.53,213.9,178.5,217.07Z"/><path class="cls-21" d="M156.62,215.28a18,18,0,0,1,7.19-11.54c5.69-4.07,13.2-4.88,20-3.07s12.22,7.05,13.34,14.36c-1.3-6.13-6.74-10.83-12.78-12.48-6.21-1.69-14.21-1-19.71,2.47A20.22,20.22,0,0,0,156.62,215.28Z"/><path class="cls-21" d="M166.19,202.34s-13.26,2.92-15.8-4.33c0,0,1.07,11.09,11.21,8.64C164.84,205.87,166.19,202.34,166.19,202.34Z"/><path class="cls-21" d="M160.23,206.49s-7.23,3.83-9.75,0c0,0,2.46,6.71,7.75,3.4C161.46,207.87,160.23,206.49,160.23,206.49Z"/><path class="cls-22" d="M254.85,209.19c14.22,26.35,14.65,50.45,3.84,58.75-5.88,4.51-18.34,6.84-25.76,1.26-3.43-2.57-5.13-6.12-6.15-10.35-5.29-22-7.25-47.38,5.52-54C247,197.31,254.85,209.19,254.85,209.19Z"/><path class="cls-17" d="M260.67,251.26c.19,3.42-2.12,6.34-5.14,6.51s-5.63-2.46-5.82-5.88,2.12-6.34,5.14-6.52S260.48,247.84,260.67,251.26Z"/><path class="cls-23" d="M223,234.23a82.83,82.83,0,0,0,2.17,13.2c1.42,5.68,2.47,9.9,5.32,14.66,3.38,5.65,7.38,8.87,6.81,9.53s-4-1.67-4.13-1.78a20.92,20.92,0,0,1-4.08-3.84,22.82,22.82,0,0,1-3-4.64,33.91,33.91,0,0,1-1.92-5.24,55.47,55.47,0,0,1-1.67-10.92A51.55,51.55,0,0,1,223,234.23Z"/><path class="cls-1" d="M206.84,185.18a3,3,0,0,1-1.65-.5h0c-.33-.22-32.79-21.17-70.77-2.7a3,3,0,0,1-2.62-5.4c41.15-20,75.27,2.15,76.7,3.1a3,3,0,0,1-1.66,5.5Z"/><path class="cls-1" d="M342.54,135.76s-4.7-49.84-50.12-50c0,0-40.77-21.9-89.59-7.44s-110.58,65.8-126.5,64.5c0,0-17.4-39.14,21.62-95.51S247,.64,247,.64,383.67,9.6,342.54,135.76Z"/><path class="cls-24" d="M314,75.8c12.3,1.75,22.16-5.34,24.22-14.64a72.76,72.76,0,0,0,2.15-9.73c-8.76-15.72-22.3-26.61-36.38-34.15A61.51,61.51,0,0,1,314,75.8Z"/><path class="cls-24" d="M85.19,104.19C108.56,66.92,155,46.94,199,48.4c-25.84-15.48-63.86-2.43-93.67,2.19,21.94-22,52.94-29.75,83.68-25.38,8.89,3.08,16.18,6.06,21.48,8.35,12.73,5.52,19.56,8.53,27.16,14.44A78,78,0,0,1,252,62.57c-4.31-26.81-34.8-43.32-58.53-53,36-3.74,77.88,20.66,77.45,60.09,15.95-21.35,1-48.57-17.05-61.84,29.41,6,40.49,39.71,41.8,66.83C312,59.5,309.79,35.92,303.44,17,276.14,2.56,247,.64,247,.64S137-9.1,98,47.27c-22.9,33.07-26.36,60.2-25.32,77,22.32-21.85,61.75-22.13,87.72-40q-15.67,4-31.54,8.17Q106.76,98.22,85.19,104.19Z"/><path class="cls-25" d="M172.28,385.73s21,48.48,37.16,77.57S245,588.53,245,605.5,243.38,658,243.38,658s10.5,254.51-12.93,302.18-46.86,52.52-49.29,52.52-112.3-2.43-123.61-1.62S80.17,814,81,810.72s26.66-25,18.58-99.38-44.44-264.2-44.44-264.2S144,414,154.5,406.74,172.28,385.73,172.28,385.73Z"/><path class="cls-26" d="M56.57,454.79c6.85,36.16,35.88,191.12,43,256.55.28,2.54.51,5,.71,7.43a123.7,123.7,0,0,0,4.18-13C125,621.65,145.51,501.2,56.57,454.79Z"/><path class="cls-26" d="M88.79,798.5c-4,7.51-7.52,11.06-7.81,12.22-.81,3.24-34.75,201.19-23.43,200.38,4.11-.29,21.27-.16,41.55.13C86.31,941,83.79,868.87,88.79,798.5Z"/><path class="cls-27" d="M5.76,1061.05c2,3.33,4.92,8.43,8.42,14.7,12.5,22.34,11.27,25.68,17.23,29.39,5.51,3.42,23.58,11.34,31.79,12.38s11.6-6.81-3-18.29c-20.67-16.24-11.58-30-27.21-44.45-5-4.65-13.12-12.11-19.66-9.45S5.86,1059.41,5.76,1061.05Z"/><path class="cls-28" d="M20.14,1057.32s3,16,8.64,29.13,11.72,26,17.23,29.39,23.58,11.34,31.79,12.38,11.61-6.81-3-18.29-23.14-33.59-27.21-44.45S20.14,1057.32,20.14,1057.32Z"/><path class="cls-29" d="M68.91,964.71s4.71,45.48,12.15,50.06A29.13,29.13,0,0,1,94.12,1036c.79,8,13.54,52.72,12.23,54.75-1.09,1.69-7.25,7.19-16-.64a17.63,17.63,0,0,1-5.8-11.91c-.38-5.39-1.29-13.69-3.47-19.89a84.29,84.29,0,0,0-9.66-18.61s-7.7,22.23-6.17,34.93,8.47,28,8.47,28S97.59,1131.09,91,1139.9c0,0-12,.19-23-15.72s-23.27-31.8-25.5-46.51-30.94-7.56-35.75-15.53,10-47.72,8.28-71.82,19-26.42,19-26.42Z"/><path class="cls-25" d="M61.58,452l-6.46-4.85s-13.73,0-19.39,33.13S15.53,713.77,7.45,743.66,5.84,860.82,1.8,910.1,1.8,1037,1.8,1037s70.29-29.08,84-25c0,0-8.08-229.46-8.08-233.5s33.13-165.64,33.13-165.64S111.68,481.07,61.58,452Z"/><path class="cls-26" d="M242.56,652.51a71.9,71.9,0,0,0-9.3-20.4,149.9,149.9,0,0,0-13.6-17.17c-5.07-5.71-10.22-11.33-15-17.27-5.12-6.35-9.93-12.94-14.49-19.71a388.18,388.18,0,0,1-24.65-42.74c-7.35-14.67-14-29.7-20.28-44.85-6.59-15.85-12.87-31.83-19.2-47.77-.41-1-.82-2.05-1.22-3.07l35.08,2.37c2.14.15,3.32-2.85,1.77-4.27-5.35-4.88-12.37-4-19-5.14-2.66-.46-5.65-1.29-7.22-3.67-1.21-1.83-1.64-4.2-.15-5.69,2.27-2.28-1.26-5.81-3.54-3.53A8.85,8.85,0,0,0,130,429a11.8,11.8,0,0,0,5.37,6.26l-14.34-1a2.51,2.51,0,0,0-2.41,3.16c6.44,16.2,12.81,32.43,19.42,48.56,6.29,15.32,12.83,30.55,20.05,45.45A412.19,412.19,0,0,0,182,574.65a302.21,302.21,0,0,0,29.35,38.51c9.57,10.69,19.6,21.49,24.63,35.19q1,2.7,1.74,5.49C238.58,656.94,243.41,655.62,242.56,652.51Z"/><path class="cls-26" d="M173.17,756.28c-2.43-1.82-5.95-1.16-8.78-1-6.72.42-13.42,1-20.13,1.57-6.39.51-12.81,1.06-19.22,1.12-3.85,0-7.68-.29-11.52-.41a18.34,18.34,0,0,0-8.4,1.23,9.17,9.17,0,0,0-3.06,2.32,2.49,2.49,0,0,0-.33.47c-1.81,2.54-2.29,5.89-3,8.86a104.63,104.63,0,0,0-2.33,12.13,49.39,49.39,0,0,0,.21,11.07c.42,3.7,1.11,7.52,3.4,10.57,5.42,7.25,15.27,6,23.25,5.63a263.72,263.72,0,0,0,29-3.06c2.41-.38,4.81-.81,7.21-1.26a33.63,33.63,0,0,0,6-1.49,13,13,0,0,0,7.81-8.58c1.25-3.92,1.28-8.18,1.45-12.26q.32-7.38.64-14.74C175.58,764.62,176.75,759,173.17,756.28Zm-2.72,11.45c-.1,2.21-.19,4.42-.29,6.63-.18,4.35-.31,8.7-.57,13-.19,3.16-.5,6.71-2.35,9.4-2,2.91-5.9,3.31-9.08,3.92a254.8,254.8,0,0,1-26.38,3.58q-6.68.56-13.36.75c-3.48.1-7.22.4-10.54-.84-6.32-2.35-6.58-10.8-6.7-16.45a43.91,43.91,0,0,1,1-9.63c.76-3.78,1.57-7.58,2.62-11.29a15.19,15.19,0,0,1,.56-1.69c-.18.41.49-.67.37-.61.15-.17.3-.33.46-.48l.37-.32.5-.31c.09,0,.52-.24.55-.27a10.71,10.71,0,0,1,1.34-.38,6.1,6.1,0,0,1,1.37-.17,80.81,80.81,0,0,1,9.07.26,157.62,157.62,0,0,0,18.44-.51c6.54-.47,13.07-1.05,19.61-1.56,2.77-.22,5.55-.43,8.33-.59,1.07-.06,2.14-.13,3.22-.14s1.55.31,1.66,1.62A48.81,48.81,0,0,1,170.45,767.73Z"/><path class="cls-26" d="M235.3,659.56H223.18a2.5,2.5,0,0,0,0,5H235.3a2.5,2.5,0,0,0,0-5Z"/><path class="cls-26" d="M228.17,753.38a161.67,161.67,0,0,1-17.11,2.33,2.56,2.56,0,0,0-2.5,2.5,2.52,2.52,0,0,0,2.5,2.5,176.41,176.41,0,0,0,18.44-2.51,2.5,2.5,0,0,0-1.33-4.82Z"/><path class="cls-26" d="M370.8,1034.18s38.44-5.21,49.52,5.22c0,0-8.47-93.83-15-139.44S394.91,783.33,393,767s-.65-134.88-1.3-140.75-22.15,58.65-24.76,85.36S370.8,1034.18,370.8,1034.18Z"/><path class="cls-25" d="M387.74,703.18c.21-6.55.18-15.69-.05-26.49,7.68-11.92,18.51-30,16.34-50.4-2.66-25-17.08-60.07-24.39-84.13-1.95-19.17-4.09-34.07-6.23-40.32-7.82-22.8-15-26.06-15-26.06s-46.91-46.92-63.2-45c0,0,59.94,87.31,69.06,147.26s-13.68,147.25-9.77,179.18,7.82,282.14,12.38,280.83S389,1027.67,391,1024.41,386.44,743.58,387.74,703.18Z"/><path class="cls-30" d="M185.75,375.44s-1.3,13.68,18.9,21.5,38.44,24.11,38.44,24.11-18.9,12.38-21.5,31.27-11.73,38.45-11.73,38.45-11.73-44.31-21.5-67.77-15-33.88-15-33.88Z"/><path class="cls-31" d="M329.1,439.29s-3.26,27.37,10.42,41c0,0-16.94-11.73-22.15-19.55S329.1,439.29,329.1,439.29Z"/><path class="cls-30" d="M288.05,398.24s36.49,35.19,41.05,41.05S308.25,472.52,305,484.9s-6.52-39.09-13-50.17S288.05,398.24,288.05,398.24Z"/></g></g></g></svg>