<svg xmlns="http://www.w3.org/2000/svg" xmlns:xlink="http://www.w3.org/1999/xlink" viewBox="0 0 433.19 1862.71"><defs><style>.cls-1{fill:url(#linear-gradient);}.cls-2{fill:#254059;}.cls-3{fill:url(#linear-gradient-2);}.cls-4{fill:#2b2b52;}.cls-5{fill:url(#linear-gradient-3);}.cls-6{fill:#0a1a33;}.cls-7{fill:url(#linear-gradient-4);}.cls-8{fill:url(#linear-gradient-5);}.cls-9{fill:url(#linear-gradient-6);}.cls-10{fill:url(#linear-gradient-7);}.cls-11{fill:#ffd0c6;}.cls-12{fill:#132e4e;}.cls-13{fill:url(#radial-gradient);}.cls-14{fill:#ffbdaf;}.cls-15{fill:url(#radial-gradient-2);}.cls-16{fill:#fff;}.cls-17{fill:url(#linear-gradient-8);}.cls-18{fill:#ff676c;}.cls-19{fill:#535f70;}.cls-20{fill:url(#linear-gradient-9);}.cls-21{fill:#ff6066;}.cls-22{fill:#d6dbdf;}.cls-23{fill:#e9ecee;}.cls-24{fill:url(#linear-gradient-10);}.cls-25{fill:#70708b;}.cls-26{fill:url(#linear-gradient-11);}.cls-27{fill:url(#linear-gradient-12);}</style><linearGradient id="linear-gradient" x1="82.4" y1="1498.34" x2="534.27" y2="1367.9" gradientUnits="userSpaceOnUse"><stop offset="0" stop-color="#ffd0c6"/><stop offset="0.82" stop-color="#ff6066"/></linearGradient><linearGradient id="linear-gradient-2" x1="231.08" y1="1430.29" x2="329.83" y2="699.04" xlink:href="#linear-gradient"/><linearGradient id="linear-gradient-3" x1="255.8" y1="398.23" x2="280.98" y2="313.2" xlink:href="#linear-gradient"/><linearGradient id="linear-gradient-4" x1="-800.81" y1="1004.29" x2="-853.85" y2="1054.89" gradientTransform="matrix(0.99, -0.11, 0.11, 0.99, 1074.43, -876.25)" xlink:href="#linear-gradient"/><linearGradient id="linear-gradient-5" x1="-790.1" y1="967.35" x2="-837.55" y2="1074.1" gradientTransform="matrix(0.99, -0.11, 0.11, 0.99, 1074.43, -876.25)" gradientUnits="userSpaceOnUse"><stop offset="0" stop-color="#ffbdaf"/><stop offset="0.82" stop-color="#ff6066"/></linearGradient><linearGradient id="linear-gradient-6" x1="-1060.03" y1="991.51" x2="-1031.19" y2="1024.58" gradientTransform="matrix(0.99, -0.11, 0.11, 0.99, 1074.43, -876.25)" xlink:href="#linear-gradient"/><linearGradient id="linear-gradient-7" x1="-1071.23" y1="962.01" x2="-1043.93" y2="1019.76" xlink:href="#linear-gradient-5"/><radialGradient id="radial-gradient" cx="1077.27" cy="1031.44" r="32.02" gradientTransform="matrix(-0.5, -0.86, -0.86, 0.5, 1767.1, 656.5)" gradientUnits="userSpaceOnUse"><stop offset="0" stop-color="#ff8084"/><stop offset="0.33" stop-color="#ffa19e"/><stop offset="0.69" stop-color="#ffcbc0"/><stop offset="1" stop-color="#ffd0c6"/></radialGradient><radialGradient id="radial-gradient-2" cx="1244.56" cy="1020.71" r="27.83" gradientTransform="matrix(-0.99, 0.11, 0.11, 0.99, 1287.6, -901.34)" xlink:href="#radial-gradient"/><linearGradient id="linear-gradient-8" x1="-8994.47" y1="399.62" x2="-8987.81" y2="461.08" gradientTransform="matrix(-1, 0, 0, 1, -8750.82, -185.26)" gradientUnits="userSpaceOnUse"><stop offset="0.11" stop-color="#ffd0c6"/><stop offset="0.25" stop-color="#ffc9c0"/><stop offset="0.45" stop-color="#ffb6b0"/><stop offset="0.68" stop-color="#ff9695"/><stop offset="0.94" stop-color="#ff6b6f"/><stop offset="1" stop-color="#ff6066"/></linearGradient><linearGradient id="linear-gradient-9" x1="252.18" y1="361.65" x2="250.94" y2="313.8" gradientTransform="matrix(1, 0, 0, 1, 0, 0)" xlink:href="#linear-gradient-5"/><linearGradient id="linear-gradient-10" x1="317" y1="609.51" x2="315.84" y2="650.63" xlink:href="#linear-gradient"/><linearGradient id="linear-gradient-11" x1="246.07" y1="711.11" x2="203.88" y2="754.83" xlink:href="#linear-gradient"/><linearGradient id="linear-gradient-12" x1="105.86" y1="653.33" x2="163.72" y2="677.34" xlink:href="#linear-gradient"/></defs><title>Asset 6</title><g id="Layer_2" data-name="Layer 2"><g id="Objects"><g id="Office_Staff" data-name="Office Staff"><path class="cls-1" d="M111.38,1118.6s24.77,173.36,25.94,207.56S155,1391,155,1409.89s8.26,112,21.23,176.9,23.59,97.88,5.9,128.54-11.8,56.61-35.38,63.68-59,17.69-54.25,36.56,100.24,5.9,100.24,5.9,38.92-86.09,54.25-73.12,7.08,69.58,7.08,69.58l11.79-1.18,20.05-87.27s14.15-16.51-20.05-47.17-24.77-163.92-23.59-244.12S204.54,1279,225.77,1200,111.38,1118.6,111.38,1118.6Z"/><path class="cls-2" d="M246.44,1703.38c-6.34,9-11.77,17.19-18.1,27.15-14.48,19.9-20.81,41.62-41.63,56.1-7.24,5.43-18.1,4.53-27.15,1.81a115.55,115.55,0,0,0-25.33-5.57c-21.73,7-45.65,17-41.72,32.7,4.72,18.87,100.24,5.9,100.24,5.9s38.92-86.09,54.25-73.12,7.08,69.58,7.08,69.58l11.79-1.18,20.05-87.27s13.75-16-18.63-45.88A69.35,69.35,0,0,0,246.44,1703.38Z"/><path class="cls-3" d="M211.7,1108.18s-32.92,183.4-28.22,223.37,10.58,70.54,10.58,97.58-4.7,55.25-4.7,101.1,16.46,72.89,10.58,128.15-23.51,85.82-23.51,109.33-24.69,71.72,3.52,92.88c0,0,55.26,16.46,64.66-42.32s-10.58-94-1.17-142.26,52.9-151.65,42.32-238.65-14.11-115.21-1.17-165.77,52.9-157.53,52.9-157.53Z"/><path class="cls-2" d="M187.88,1829.44c-12-4.18-17.07-14.71-18-26.69-4.64,21.47-7.35,44.8,10,57.84,0,0,55.26,16.46,64.66-42.32a211,211,0,0,0,2.17-46.48c-2.74,8.93-5.28,18.13-7.48,27.88C234.79,1821.32,210.43,1835.76,187.88,1829.44Z"/><path class="cls-4" d="M99.49,778.48S66.26,869.37,74.08,945.61s27.37,176.9,24.43,222.84-3.91,116.31-3.91,116.31,194.5,32.25,212.09,22.48c0,0,4.89-124.13,43-209.16s37.14-185.7-2-283.44L335,768.7Z"/><path class="cls-4" d="M182.57,433.14S133.7,453.34,91.35,452c0,0,0,63.2-9.13,106.2S93.3,667.71,88.74,708.11,62,879.47,62,879.47s123.14,16.29,127.71,13.69,163.54,2.6,185-5.22c0,0-5.86-104.9-24.1-172S433,451.86,433,451.86l-2.11-5.49a17.66,17.66,0,0,0-12.32-10.84c-19.69-4.81-66.95-16.58-93.31-25.2Z"/><path class="cls-4" d="M.78,719.84c.65-4.57,3.91-48.22,3.91-67.12s30-63.85,35.18-86S78.31,456.6,91.35,452s15,156.38,13.68,160.28-45,88.62-53.43,95.79S.78,719.84.78,719.84Z"/><path class="cls-5" d="M316.73,315.91s-18.94,74.49-2,87.37a6.62,6.62,0,0,1,2.15,2.63c5,11.64-32.77,36-55.68,54.38-20.71,16.59-48.15,43.34-74.08,86.66q.29-56.49.56-113a98,98,0,0,0,19.46-35.08,99.92,99.92,0,0,0,.38-56.55Z"/><path class="cls-6" d="M154.21,232l-27-27.46s-19.69-73.6-16.28-104c7.86-70.07,96-93.06,141.76-96.3,13.44-1,68.7-4.86,108,32.8a120.45,120.45,0,0,1,24.07,33.84c21.16,43.78,17.7,102.14-7.25,138.9C338.91,266.6,239.16,286.2,154.21,232Z"/><path class="cls-7" d="M369.64,190c1.37-2,15.66-8.66,28.87-5.34,7.63,1.92,14.9,7.15,19.11,18.52,8.93,24.08-11,46-32.84,51.09A37.57,37.57,0,0,1,366,254Z"/><path class="cls-8" d="M372.23,205c7.48-9.86,34.2-7.66,32.57,5.24s-11.19,4.37-18.66,5.22-10.72,14.63-6.48,18.61,14,2.54,10.13,7.45-11.81,17.16-18.45,1.06S366,213.25,372.23,205Z"/><path class="cls-9" d="M142.47,202.07c-1.51-1.4-14.47-4.14-24.67,1.07-5.89,3-10.86,8.66-12.17,18.78-2.78,21.42,17.7,35.63,36.56,35.67a31.59,31.59,0,0,0,15.38-3.7Z"/><path class="cls-10" d="M143.18,214.87c-8-6.67-29.47.17-25.71,10.44s10,1.46,16.28.75,11.54,10,8.82,14-11,4.72-6.89,8,12.91,11.83,15.32-2.61S149.89,220.47,143.18,214.87Z"/><path class="cls-11" d="M373.42,132.1c4.77,24.15,22.19,125.84-39.57,197.77-12.63,14.72-45.68,53.21-88.21,49.43-37.51-3.34-61.46-37.73-71.92-52.74C122.5,253,133.64,144.25,133.64,144.24a76.3,76.3,0,0,1,11.64-32.44c32.3-49,126.58-55.55,187-18.3A145.12,145.12,0,0,1,373.42,132.1Z"/><path class="cls-12" d="M213.09,184.17a4,4,0,0,1-2.38-.79c-10.55-7.82-39.24-21.06-55.81-9.44a4,4,0,0,1-4.59-6.55c9.21-6.46,21.89-7.79,36.66-3.84A90.77,90.77,0,0,1,215.47,177a4,4,0,0,1-2.38,7.21Z"/><circle class="cls-13" cx="333.57" cy="245.02" r="27.11" transform="translate(-25.05 451.64) rotate(-66.25)"/><path class="cls-14" d="M327.73,242.32a5.3,5.3,0,1,0,4.67-5.87A5.3,5.3,0,0,0,327.73,242.32Z"/><circle class="cls-15" cx="166.15" cy="253.22" r="23.56"/><path class="cls-14" d="M161.07,250.88a4.61,4.61,0,1,0,4.06-5.1A4.61,4.61,0,0,0,161.07,250.88Z"/><path class="cls-16" d="M166.57,218.89c1.38,12.15,11.55,22,23.47,20.68s19.86-12.37,18.48-24.52S197,195.22,185,196.57,165.19,206.74,166.57,218.89Z"/><path class="cls-6" d="M173.49,221.15c1,8.62,8.24,14.88,16.21,14s13.64-8.64,12.66-17.26-8.24-14.89-16.21-14S172.51,212.52,173.49,221.15Z"/><path class="cls-16" d="M186.26,213.79c.36,3.16,3.59,5.38,7.21,5s6.27-3.3,5.92-6.45-3.59-5.37-7.21-5S185.9,210.64,186.26,213.79Z"/><path class="cls-6" d="M207.18,209.25a20.66,20.66,0,0,0-13.81-11,25.82,25.82,0,0,0-20.28,4,16.08,16.08,0,0,0-6.4,11.16A15,15,0,0,1,172.12,201a20.16,20.16,0,0,1,6.14-3.5A31.75,31.75,0,0,1,185.1,196c4.62-.47,9.6.05,13.7,2.51A18.07,18.07,0,0,1,207.18,209.25Z"/><path class="cls-6" d="M173.88,199.79s-12.9,4.92-16.48-1.89c0,0,3.34,12.14,12.37,6.9A10.21,10.21,0,0,0,173.88,199.79Z"/><path class="cls-6" d="M168.38,204.84s-6.58,4.86-9.64,1.43c0,0,3.42,6.27,8.17,2.22C169.8,206,168.38,204.84,168.38,204.84Z"/><path class="cls-16" d="M284.27,217.92c1.38,12.15,11.53,22,23.42,20.68s19.8-12.36,18.42-24.51-11.54-19.84-23.43-18.49S282.89,205.76,284.27,217.92Z"/><ellipse class="cls-6" cx="305.57" cy="218.54" rx="14.49" ry="15.72" transform="translate(-22.71 35.88) rotate(-6.48)"/><path class="cls-16" d="M303.19,212.36c.36,3.15,3.58,5.37,7.2,5s6.25-3.3,5.89-6.45-3.57-5.37-7.19-5S302.84,209.21,303.19,212.36Z"/><path class="cls-6" d="M324.69,208.15a19.82,19.82,0,0,0-10.9-10c-7.14-2.64-16.87-1.42-23,3.15a16.13,16.13,0,0,0-6.38,11.15,15,15,0,0,1,5.4-12.37c5.25-4.8,13.16-6,20-4.79C317.62,196.65,321.46,201.29,324.69,208.15Z"/><path class="cls-6" d="M312.94,196.07s14.46,1.88,16.23-5.6c0,0-.23,12.66-10.26,9.76A10.92,10.92,0,0,1,312.94,196.07Z"/><path class="cls-6" d="M320.27,199.93s7.59,3.06,9.69-1c0,0-1.75,6.93-7.36,4.19C319.19,201.43,320.27,199.93,320.27,199.93Z"/><path class="cls-17" d="M226.44,212.49c-11.39,27.69-9.3,51.71,2.32,58.83,6.32,3.88,19,4.89,25.75-1.43,3.14-2.92,4.46-6.62,5-10.93,3-22.47,2.27-47.89-11.12-53.11C233,199.86,226.44,212.49,226.44,212.49Z"/><path class="cls-14" d="M225.05,254.94c.17,3.43,2.77,6.09,5.79,5.94s5.35-3,5.17-6.46-2.76-6.08-5.79-5.94S224.87,251.52,225.05,254.94Z"/><path class="cls-18" d="M260.25,237.7a41.06,41.06,0,0,1,1.44,9.43,44.26,44.26,0,0,1-.58,9.6,27.05,27.05,0,0,1-1.32,4.71,19.89,19.89,0,0,1-2.38,4.31A15.31,15.31,0,0,1,250,271.5a20.65,20.65,0,0,0,7.8-10.12c1.74-4.56,2.14-9.42,2.39-14.25C260.3,244,260.29,240.88,260.25,237.7Z"/><path class="cls-12" d="M271.79,184.16a4,4,0,0,1-3.15-6.46c.89-1.13,22.33-27.56,71-16.1a4,4,0,1,1-1.83,7.79c-43.48-10.23-62.13,12.3-62.91,13.27A4,4,0,0,1,271.79,184.16Z"/><path class="cls-6" d="M131.57,148.62s-.53-50.06,44.62-55c0,0,38.26-26,88.32-16.75s116.85,53.89,132.55,50.93c0,0,13.22-40.74-31.48-92.73S212.43,4.27,212.43,4.27,77.49,27.44,131.57,148.62Z"/><path class="cls-19" d="M153.74,86c-12.05,3-22.6-3-25.62-12A72.36,72.36,0,0,1,125,64.52C132,48,144.37,35.73,157.58,26.76A61.53,61.53,0,0,0,153.74,86Z"/><path class="cls-19" d="M384.22,90.35c-27.14-34.63-75.36-49.65-119-43.59,24.09-18.1,63.26-9.09,93.39-7.61-24.12-19.56-55.76-24.06-85.88-16.5-8.52,4-15.45,7.71-20.48,10.55C240.12,40,233.64,43.72,226.7,50.39a78,78,0,0,0-12.72,16c1.48-27.12,30.09-46.72,52.68-58.79-36.16,0-75.3,28.68-70.75,67.84-18.09-19.57-6.06-48.2,10.49-63.28C177.79,21.21,170.28,55.87,171.81,83c-17.87-13.38-18.1-37.08-13.75-56.54C183.7,9.22,212.43,4.27,212.43,4.27s108.45-21.18,153.15,30.8C391.81,65.58,398.08,92.2,398.8,109c-24.48-19.4-63.72-15.56-91.42-30.64q16,2.33,32.22,4.83Q362.15,86.67,384.22,90.35Z"/><path class="cls-20" d="M220.91,319.89s-1.21,23.18,26.08,28,34.25-31,34.25-31Z"/><path class="cls-21" d="M217.4,310.51c-.49-14.39,28.7-14.5,40.36-12.49,6.73,1.17,16.52,3.35,20.69,9.46,5.76,8.42-1.42,19.09-8.21,24.35-15.46,12-39.48,3.35-49.33-11.94C218.56,316.24,217.48,313.14,217.4,310.51Z"/><path class="cls-6" d="M281.76,311.45c-1.31-6.51-7.52-10.06-13.33-12-9.46-3.18-19.91-3.92-29.8-3a44.53,44.53,0,0,0-14.27,3.27c-3.58,1.6-7,4.18-8.09,8.1a9.61,9.61,0,0,0-.34,2.87c.3,6.29,4.62,12.14,9,16.33a42.72,42.72,0,0,0,15.73,9.46,36.39,36.39,0,0,0,17.95,1.51,29.58,29.58,0,0,0,16.16-8.77C279.18,324.59,283.09,318,281.76,311.45Zm-6.05,12.85a26.78,26.78,0,0,1-13.59,10.8,30.08,30.08,0,0,1-16.19.48,40.55,40.55,0,0,1-15.21-7.23c-4.65-3.55-8.93-8.38-11-13.92a13.73,13.73,0,0,1-.89-4.05c-.2-8.39,9.88-10.76,16.45-11.65a74.11,74.11,0,0,1,25.93,1.07c5.38,1.19,11.57,3,15.21,7.41C280.72,312.39,279.09,319.14,275.71,324.3Z"/><path class="cls-16" d="M230.3,310.89c15,4,30,5,43-1a14.13,14.13,0,0,0,4.34-3.47c-4.53-5.31-13.55-7.3-19.88-8.4-7.85-1.35-23.63-1.74-33,2.54A9.46,9.46,0,0,0,230.3,310.89Z"/><path class="cls-6" d="M279,305.84c-3.21-3.66-7.93-5.6-12.51-6.91a70,70,0,0,0-12.83-2.36,84.44,84.44,0,0,0-14.4-.06,47,47,0,0,0-14.16,3c-.53.22-1.33.44-1.64,1a4.29,4.29,0,0,0-.22,1.92,10.17,10.17,0,0,0,.55,3.42,10.66,10.66,0,0,0,5.39,5.76l.21.07.06,0c8.63,2.29,17.56,3.71,26.5,3.18a51.22,51.22,0,0,0,12.46-2.25c3.94-1.24,7.64-2.77,10.42-5.94C279,306.45,279.24,306.14,279,305.84Zm-12.05,5.57a48.05,48.05,0,0,1-11.55,1.82,81.68,81.68,0,0,1-24-3.12,9.21,9.21,0,0,1-5.16-9.26c6.32-2.61,13.6-3,20.34-2.88a69.12,69.12,0,0,1,19.22,2.91c3.75,1.17,7.5,2.88,10.21,5.78C273.5,309.19,270.33,310.43,266.93,311.41Z"/><path class="cls-22" d="M179.57,574.67c-.6-2.38-10.72-126.23-10.72-126.23l28.58-2.39s7.14,32.75,7.14,34.54-8.93,25.6-10.12,35.73-5.36,23.22-5.36,23.22,20.25-53,57.16-79.79S326,425.21,326,425.21s-20.84,13.7-23.81,17.27S179.57,574.67,179.57,574.67Z"/><path class="cls-4" d="M322.47,396.63s8.34,61.33,8.93,63.12-37.51,2.38-37.51,2.38l17.86,26.8s-116.7,52.39-137.54,101.82c0,0,19.65-73.24,52.4-103.61S322.47,396.63,322.47,396.63Z"/><path class="cls-4" d="M191.47,416.28s-28,28-46.44,31.56l19.05,12.51-32.15,23.22s29.77,92.29,53.59,132.78c0,0-1.79-146.48,3-163.75S191.47,416.28,191.47,416.28Z"/><path class="cls-23" d="M203.34,381.39s-8.89,33.58-24.69,41.48l-21.73,10.86,20.74,3-16.79,18.76s22.72-2,29.63,6.92,14.82,18.76,11.85,27.65c0,0,4-22.72,3-57.28-.42-14.52,3.55-34.94,4-38.52.77-6.93,1.44-12.7,1.93-16.78Z"/><path class="cls-23" d="M230,475.21s81-78,81-97.77c-1.52-4.38-1.41-7.83-.22-8.38s3.49,1.41,5.6,4.48a144.63,144.63,0,0,1,11.41,13.78,152.57,152.57,0,0,1,25.68,58.27l-51.36-5.93L308,460.4S240.87,463.36,230,475.21Z"/><path class="cls-24" d="M292.21,661.26s16.8-49.22,22-51.54,23.75-11.58,24.9-8.11,5.22,9.27-11.58,20.85-20.27,57.92-20.27,57.92Z"/><path class="cls-25" d="M230,759.31s-7.52,5.7-13-4.07,6.31-34,6.31-34l21.12-22.58s9.24-3.06,6.89,8.39S249.58,751.84,230,759.31Z"/><path class="cls-26" d="M193,736.8a286.29,286.29,0,0,0,52.24-1.32c24.83-2.91,37.24-4.37,44.09-9.35,31.18-22.7,10.73-74.62,31.52-89.37,0,0,10.27-7.4,11.39-15.49,1-7.26-4.69-9.23-4.69-9.23s-27.46,18.45-33.49,31-30.4,46-36.43,51.59-59.61,5.6-59.61,5.6Z"/><path class="cls-16" d="M162.06,755.06l35.45.84s23,6.21,32.53,3.41c0,0-6.9,1-3.07-17.63s17.48-43,17.48-43l-22.76,1.21Z"/><path class="cls-4" d="M235.72,699.38c-1.95.66-25.57,35.9-28.18,59.36,0,0-38.19,6.91-62.95,3S.78,719.84.78,719.84c-5.22-6.52,16.64-52.42,40.75-57.63S167.58,693.77,195,696.38,235.72,699.38,235.72,699.38Z"/><path class="cls-27" d="M172.82,647.42s-35.66-4.36-37.11-4.36c-7.47,0-33.7-10.43-51.68-33.48-4-5.16-9.66-13.69-20.74-22.56-1.86-1.5-14.11-11.3-17.1-8.74-1.52,1.3-.09,5.29.36,6.55,1.92,5.37,5.46,6.54,11.28,13.1a98.27,98.27,0,0,1,6.55,8.74c3.36,4.75,6,9,8,12.37,0,0-22.56-11.28-26.57-12-15.42-2.8-34.07-1.39-34.93,3.28-.5,2.68,5,5.74,5.82,6.18,7.7,4.27,13.88.37,23.29,2.19,3.83.73,9.09,2.59,14.92,7.64,0,0-22.2-4.73-24-4S1.43,631.41,4,634.69s12,5.82,16.37,4.73,14.19-4.37,14.19-4.37l21.84,5.46s-14.64,2.72-22.19,2.9a4,4,0,0,0-2,.57c-1.34.82-3.74,2.84-7.13,7.81-5.46,8-15.64,9.1-15.28,11.64s7.64,6.92,16.74,1.46,14.19-9.1,14.19-9.1l19.65.73s20.38,14.19,36.39,18.56,21.11,3.64,21.11,3.64L167,692.18Z"/><path class="cls-16" d="M167.44,640.61l-32.75-4.76S118,650.14,115,671.57s4.76,22.63,4.76,22.63l40.49,10.12Z"/><path class="cls-4" d="M150.17,633.47s-17.86,22-17.27,39.29,6.55,36.92,8.34,36.92,101.22,1.19,154.22,8.34,69.66-6,69.66-6,54.78-63.71,56.57-106.58S434.79,460.79,433,451.86s-55.37,9.52-67.88,44.66S341.31,597.74,336,619.77c0,0-40.49,3-63.71,4.17S186.49,640.61,150.17,633.47Z"/></g></g></g></svg>