<svg xmlns="http://www.w3.org/2000/svg" xmlns:xlink="http://www.w3.org/1999/xlink" viewBox="0 0 728.58 1880.44"><defs><style>.cls-1{fill:#ffa14a;}.cls-2{fill:url(#linear-gradient);}.cls-3{fill:url(#linear-gradient-2);}.cls-4{fill:#ffe756;}.cls-5{fill:#254059;}.cls-6{fill:#b96342;}.cls-7{fill:url(#linear-gradient-3);}.cls-8{fill:url(#linear-gradient-4);}.cls-9{fill:url(#linear-gradient-5);}.cls-10{fill:url(#linear-gradient-6);}.cls-11{fill:url(#linear-gradient-7);}.cls-12{fill:#ffbdaf;}.cls-13{fill:url(#radial-gradient);}.cls-14{fill:url(#radial-gradient-2);}.cls-15{fill:url(#linear-gradient-8);}.cls-16{fill:#0a1a33;}.cls-17{fill:#fff;}.cls-18{fill:url(#linear-gradient-9);}.cls-19{fill:#ff676c;}.cls-20{fill:#ffcb9c;}.cls-21{fill:#f9f18d;}.cls-22{fill:#4e627b;}.cls-23{fill:#68798e;}.cls-24{fill:#ddb3a6;}.cls-25{fill:#c47a63;}.cls-26{fill:url(#linear-gradient-10);}.cls-27{fill:url(#linear-gradient-11);}.cls-28{fill:#455a73;}.cls-29{fill:#e9eaed;}.cls-30{fill:url(#linear-gradient-12);}.cls-31{fill:#c8846a;}.cls-32{fill:url(#linear-gradient-13);}.cls-33{fill:url(#linear-gradient-14);}.cls-34{fill:url(#linear-gradient-15);}.cls-35{fill:url(#linear-gradient-16);}</style><linearGradient id="linear-gradient" x1="386.56" y1="1370.58" x2="291.54" y2="1190.24" gradientUnits="userSpaceOnUse"><stop offset="0" stop-color="#ffbdaf"/><stop offset="0.82" stop-color="#ff6066"/></linearGradient><linearGradient id="linear-gradient-2" x1="255.16" y1="1361.79" x2="428.48" y2="963.02" xlink:href="#linear-gradient"/><linearGradient id="linear-gradient-3" x1="4511.56" y1="26.59" x2="4480.5" y2="-115.6" gradientTransform="translate(-4065.14 -382.7) rotate(9.76)" xlink:href="#linear-gradient"/><linearGradient id="linear-gradient-4" x1="-6579.19" y1="-291.03" x2="-6632.22" y2="-240.43" gradientTransform="matrix(-0.98, -0.18, -0.18, 0.98, -6232.3, -686.3)" xlink:href="#linear-gradient"/><linearGradient id="linear-gradient-5" x1="-6568.48" y1="-327.98" x2="-6615.92" y2="-221.22" gradientTransform="matrix(-0.98, -0.18, -0.18, 0.98, -6232.3, -686.3)" xlink:href="#linear-gradient"/><linearGradient id="linear-gradient-6" x1="-6806.39" y1="-291.59" x2="-6777.56" y2="-258.52" gradientTransform="matrix(-0.98, -0.18, -0.18, 0.98, -6232.3, -686.3)" xlink:href="#linear-gradient"/><linearGradient id="linear-gradient-7" x1="-6817.59" y1="-321.09" x2="-6790.29" y2="-263.34" gradientTransform="matrix(-0.98, -0.18, -0.18, 0.98, -6232.3, -686.3)" xlink:href="#linear-gradient"/><radialGradient id="radial-gradient" cx="14619.24" cy="-256.2" r="32.02" gradientTransform="translate(-3354.16 -13881.8) rotate(76.24)" gradientUnits="userSpaceOnUse"><stop offset="0" stop-color="#ff8084"/><stop offset="0.42" stop-color="#ffa19a"/><stop offset="0.69" stop-color="#ffb8a9"/><stop offset="1" stop-color="#ffbdaf"/></radialGradient><radialGradient id="radial-gradient-2" cx="16771.01" cy="-279.69" r="27.84" gradientTransform="matrix(0, 0.59, -0.98, 0, 228.82, -9672.73)" xlink:href="#radial-gradient"/><linearGradient id="linear-gradient-8" x1="4817.1" y1="-510.28" x2="4815.81" y2="-560.27" gradientTransform="matrix(0.85, 0.23, -0.18, 0.66, -3738.87, -426.11)" xlink:href="#linear-gradient"/><linearGradient id="linear-gradient-9" x1="4636.42" y1="207.77" x2="4643.08" y2="269.22" gradientTransform="translate(-4148.22 -294.62) rotate(3.89)" gradientUnits="userSpaceOnUse"><stop offset="0" stop-color="#ffbdaf"/><stop offset="1" stop-color="#ff6066"/></linearGradient><linearGradient id="linear-gradient-10" x1="116.94" y1="1062.59" x2="150.83" y2="1091.22" xlink:href="#linear-gradient"/><linearGradient id="linear-gradient-11" x1="117.87" y1="1018.41" x2="172.2" y2="972.25" xlink:href="#linear-gradient"/><linearGradient id="linear-gradient-12" x1="625.88" y1="634.34" x2="689.89" y2="647.47" xlink:href="#linear-gradient"/><linearGradient id="linear-gradient-13" x1="476.43" y1="602.21" x2="516.55" y2="618.01" xlink:href="#linear-gradient"/><linearGradient id="linear-gradient-14" x1="481.49" y1="613.46" x2="529.66" y2="609.59" xlink:href="#linear-gradient"/><linearGradient id="linear-gradient-15" x1="499.02" y1="606.72" x2="552.52" y2="599.02" xlink:href="#linear-gradient"/><linearGradient id="linear-gradient-16" x1="531.81" y1="596.42" x2="557.76" y2="644.67" xlink:href="#linear-gradient"/></defs><title>Asset 5</title><g id="Layer_2" data-name="Layer 2"><g id="Objects"><g id="Office_Staff" data-name="Office Staff"><path class="cls-1" d="M315.43,1759l-3.29,67.15c3.64,2.32,10.14,5.89,13.59,3.47,2.32-1.62,2-5.07,2.06-10.55a160.39,160.39,0,0,1,4.76-35h0Z"/><path class="cls-2" d="M437.37,1033.84c-16.12-.26-29-.47-44.36,5.24-32.21,12-47.89,39.69-51.68,46.62-10.74,19.65-11.91,37-13.68,68.41a384.65,384.65,0,0,0,2,64.51c7.76,71.78,26,98.91,20.82,149.13A333.25,333.25,0,0,1,345,1401c-5.37,18-13.35,35.53-17.53,53.81-12.44,54.34.9,110.08,3.9,164.69,1.48,27,.53,54.45-7.95,80.3a186,186,0,0,1-7.83,19.14c-2.59,5.7-4.06,11.37-1.64,17.41s6.63,10.9,9.21,16.75a104.6,104.6,0,0,1,5.93,19c5.28,23,7.42,49.37,27.68,64.79,17.14,13,43.92,15.61,62,2.9a12.71,12.71,0,0,0,5.48-14.87,63.25,63.25,0,0,0-10.61-22.45c-11.89-14.61-15.84-34-22.15-65.16a175.12,175.12,0,0,1-3.91-27.37,166.3,166.3,0,0,1,5.63-52.06c11.44-45,19.74-71.87,25.08-93,7.76-30.71,14.18-61.87,16.8-93.49,2.57-31.07-.4-62.31,2.48-93.35,1.8-19.34,7-31.94,10.75-45.16,4.9-17.11,15.16-65.13,35.69-161.16,19.73-92.3,23.92-114.74,9.77-127.06C482.23,1034.56,461.79,1034.24,437.37,1033.84Z"/><path class="cls-3" d="M356.92,1098.69a21.89,21.89,0,0,0-.47-3.4c-2.47-11.54-15.8-14.11-25.45-17.23-26.7-8.63-56.28-6.43-83.75-3.41-31,3.41-24.35,31.72-22.82,55.37,2.19,34.12,8.57,64.63,15.39,97.92,2.54,12.39,7.52,56.62-2.76,106.74-8.47,41.31-18.3,40.52-34.51,96.36-9.75,33.58-13.6,59.37-19.61,99.69-4.16,27.88-3.7,37.08-5.51,56.41-1.66,17.74-3.52,30.78-6.56,48.24-6.07,34.85-12.53,71.9-30.87,112.33-4.36,9.58-11,23-14.24,42.92-2.38,14.72-3.7,26.86,1.54,39.67,8.36,20.41,34.15,38.29,56,26.43,10.56-5.72,12.93-17.65,13.13-28.68.11-6.24-.34-12.48.05-18.72a101.57,101.57,0,0,1,4.35-22.28c7.38-25,15-46,17.22-72.21,2.29-26.61,3.36-53.71,12.39-79.12,14.5-40.82,26.94-43.42,49.09-88.38,20.64-41.89,13.4-53.16,36.35-138.46,21.65-80.41,26-62.56,31.28-99,10-68.93,1.15-177.86,6.82-192.59A42.81,42.81,0,0,0,356.92,1098.69Z"/><path class="cls-4" d="M137.58,1752.67c-7.91,25.85-3.47,48.73,10.09,57.45a26.64,26.64,0,0,0,16.42,3.81c19.51-1.56,37.28-24.47,45.34-56.66,0,0-2.35,9.21-4.6,22.28-3.33,19.35-.87,26.39-4,45.41-2.42,14.92-3.76,22.51-9.74,29.12-6.88,7.6-16.15,10.55-22.65,12.62s-12.25,3.89-19.56,2.31c-7.63-1.64-12.49-6.09-16-9.26a49.17,49.17,0,0,1-13.39-20.85c-3.13-10.05-1.75-18.71,3.34-37.93C126.27,1788.19,131,1771.75,137.58,1752.67Z"/><path class="cls-4" d="M320.71,1706c-.86,2.57-20.57,32.56-15.43,53.12s18,6,25.71,35.13.86,48.84,25.7,66.83c23.56,17.06,62.81,27.1,75.4,12,9.63-11.55.57-34-9.84-59.89q-2.53-5.37-5.15-10.77Q407.23,1782,397,1762.71a87.41,87.41,0,0,0,3.35,16.48c5,16.4,12.4,23.11,10,32.94-.33,1.35-2,7.39-6.59,10.37-13,8.36-49.37-7.83-59.12-30C325.85,1749.67,320.71,1706,320.71,1706Z"/><path class="cls-5" d="M217.94,772s-54.67,158.24-56.11,211.47,40.28,294.92,40.28,294.92,270.46,8.63,332.32-31.65c0,0-21.58-181.27-10.07-264.71S482.64,757.6,482.64,757.6Z"/><path class="cls-1" d="M523.73,87.1s22.69,100.06-12,217.78,20,105-4,112.82C479.19,427,455,411.14,455,411.14c-8.48-4.06-44.75-8.51-117.29-17.41-18-2.21-41.17,5.32-70.68-3.63-13.15-4-34.2-10.66-46.61-28.72-14.73-21.42-10-48.3-6.09-67,16.43-78.45,50.91-166,66-203A218.66,218.66,0,0,1,378.15,53.6C451.46,44.5,506.75,76.37,523.73,87.1Z"/><path class="cls-6" d="M505.77,278.12c-25.31,34.46-31,62.69-31.47,82.25-.52,22,5.54,36.39-4.07,47.72-6.53,7.71-18.91,12.37-57.87,8.12-57.14-6.23-85.71-9.35-101.54-25.38-47.3-47.93,17.25-149.16-21.32-211.19-4-6.49-19.49-29.09-17.26-57.88a77.21,77.21,0,0,1,6.09-24.37A381.55,381.55,0,0,1,388,81.15c51.29,0,109-1,134.67,36.83,19,28,15.56,63.28,13.07,83.69A167.13,167.13,0,0,1,505.77,278.12Z"/><path class="cls-7" d="M332.16,287.06c.26,39.14-5.58,64.55-11.37,80.94-1.82,5.14-4.63,12.59-2.83,21.72,3.05,15.52,19.8,27.55,32.85,37.15,16.81,12.37,19.49,10.05,24.93,17.89a23.73,23.73,0,0,1,2.14,3.64c2.8,6,4.16,14.83,4.16,14.83,2.85,9.07,6.2,18.51,10.17,28.21q1.79,4.35,3.63,8.53l10.47-61.76c2.15-10.09,4.67-20.57,7.61-31.37A574.43,574.43,0,0,1,432,351.7Q382.07,319.38,332.16,287.06Z"/><path class="cls-1" d="M511.82,241.76l17.3-14.4c6.6-7.67,46.41-55.41,34.72-113.88-14.08-70.43-91.5-99.58-135-105.6C415.52,6,360.65-1.58,318.92,33.35c-11.7,9.79-23.49,17.94-26.29,32.15-6.62,33.5,40.2,68,87.24,101.95A686.19,686.19,0,0,0,511.82,241.76Z"/><path class="cls-8" d="M316.3,186.59c-1.23-2.11-15-9.69-28.45-7.26-7.74,1.4-15.34,6.12-20.31,17.19-10.53,23.43,7.9,46.65,29.34,53.17a37.41,37.41,0,0,0,18.79,1.08Z"/><path class="cls-9" d="M312.71,201.41c-6.81-10.35-33.61-9.95-32.86,3s10.88,5.11,18.28,6.45,9.71,15.32,5.21,19-14.18,1.59-10.6,6.75,10.62,17.91,18.33,2.3S318.42,210.09,312.71,201.41Z"/><path class="cls-10" d="M508.47,220.23c1.59-1.3,14.71-3.16,24.53,2.72,5.68,3.4,10.26,9.38,10.89,19.56,1.33,21.56-20.06,34.36-38.87,33.13a31.48,31.48,0,0,1-15.1-4.72Z"/><path class="cls-11" d="M506.9,233c8.42-6.12,29.39,2.15,24.94,12.14s-10.07.8-16.29-.34-12.18,9.17-9.74,13.41,10.68,5.45,6.34,8.46S498.47,277.56,497,263,499.83,238.09,506.9,233Z"/><path class="cls-12" d="M330.53,131.1c-3.76,8.49-53.2,124.23,7.46,200.22,22.58,28.29,70.69,63.95,108.27,50,13.86-5.14,22.67-19,39.75-46.58s55.18-93.22,52.23-179.2h0a76.29,76.29,0,0,0-9.44-33.16C495.44,63.59,380,46.88,343.48,91.59,337.39,99,331.12,111.12,330.53,131.1Z"/><path class="cls-1" d="M493.07,190.82a3.93,3.93,0,0,1-2.46-.85,4,4,0,0,1-.69-5.61c3.38-4.33,10.44-9.35,20.14-10.47,6.68-.77,16.92.15,27.74,8.87a4,4,0,0,1-5,6.23c-8.67-7-16.65-7.75-21.81-7.15-7.24.83-12.47,4.53-14.75,7.44A4,4,0,0,1,493.07,190.82Z"/><circle class="cls-13" cx="372.91" cy="256.76" r="27.11" transform="translate(-13.72 492.37) rotate(-65.91)"/><path class="cls-12" d="M378.91,254.47a5.3,5.3,0,1,1-4.26-6.17A5.29,5.29,0,0,1,378.91,254.47Z"/><ellipse class="cls-14" cx="502.44" cy="272.56" rx="23" ry="13.97" transform="translate(144.21 717.98) rotate(-79.67)"/><path class="cls-12" d="M505.74,270.28c-.45,2.44-2,4.2-3.5,3.93s-2.33-2.47-1.88-4.91,2-4.21,3.49-3.94S506.18,267.83,505.74,270.28Z"/><path class="cls-15" d="M405.86,300.82c9,18.56,25.19,29,39.12,28.76,3.53-.06,14-.25,20.74-7.84a21.26,21.26,0,0,0,3.85-6.27,124.85,124.85,0,0,0-24-7c-8.23-1.51-13.2-1.53-23.81-3.68C414.92,303.41,409.41,301.88,405.86,300.82Z"/><path class="cls-16" d="M472.13,314.88c-.55-.65-3.17.23-3.71.42-11.25,3.95-23.5,2-34.42-2.1a91.9,91.9,0,0,1-13.82-6.36,81.81,81.81,0,0,0-9.08-4.78,24.49,24.49,0,0,0-2.79-1l.2-.08.8-.27c1.25-.4,2.52-.75,3.8-1,1-.23,2.77-1.24,2.42-2.53s-2.37-1.2-3.36-1a46,46,0,0,0-16,7c-.86.6-1.62,2-.39,2.67a4.17,4.17,0,0,0,4.13-.43c1-.7,2-1.35,3.1-2l.51-.27a2.47,2.47,0,0,1,.36.11,36.3,36.3,0,0,1,4.74,2.09c2.58,1.31,5,2.87,7.59,4.2,10.36,5.37,21.58,9.56,33.34,10a56.13,56.13,0,0,0,20.78-3.24C470.81,316.21,472.72,315.6,472.13,314.88Z"/><path class="cls-17" d="M520,230.14c-1.76,9.66-10.44,17-19.91,15.29s-15.23-11-13.47-20.62,10.33-15.26,19.8-13.53S521.73,220.49,520,230.14Z"/><path class="cls-16" d="M514.31,231.58c-1.25,6.85-7.4,11.47-13.73,10.32s-10.46-7.65-9.21-14.51,7.39-11.47,13.73-10.32S515.56,224.72,514.31,231.58Z"/><path class="cls-17" d="M511.2,237.86a4.52,4.52,0,1,1-3.67-5A4.37,4.37,0,0,1,511.2,237.86Z"/><path class="cls-16" d="M488,220.24A14.29,14.29,0,0,1,495.2,212c5.81-3,14.26-1.76,19.5,1.95a12.57,12.57,0,0,1,5.47,11.47c-.45-4.81-3.81-8.89-8.06-11s-11.05-3.18-15.67-1.27l-.59.25A16.53,16.53,0,0,0,488,220.24Z"/><path class="cls-16" d="M515.26,214.36s10,4.73,13.18-.53c0,0-3.23,9.4-10.27,4.86C514.61,216.39,515.26,214.36,515.26,214.36Z"/><path class="cls-16" d="M519.28,218.8s5,4.24,7.64,1.66c0,0-3.08,4.84-6.66,1.34C518.08,219.67,519.28,218.8,519.28,218.8Z"/><path class="cls-17" d="M427.09,213.09c-2.1,11.54-12.45,20.34-23.75,18.29s-18.15-13.11-16-24.65,12.33-18.24,23.62-16.19S429.2,201.54,427.09,213.09Z"/><path class="cls-16" d="M420.34,214.8c-1.49,8.2-8.83,13.73-16.38,12.35S391.5,218,393,209.82s8.83-13.72,16.38-12.35S421.83,206.61,420.34,214.8Z"/><path class="cls-17" d="M419.12,221.25c-.55,3-3.77,4.91-7.21,4.29s-5.77-3.56-5.23-6.55,3.78-4.92,7.21-4.29S419.66,218.26,419.12,221.25Z"/><path class="cls-16" d="M389,201.27a17.23,17.23,0,0,1,8.67-9.76c6.87-3.56,16.85-2.07,23.06,2.28,4.89,3.43,6.76,8.41,6.66,14.18-.3-8.4-7.49-14-15.2-15.71S392.05,192.32,389,201.27Z"/><path class="cls-16" d="M400.41,190.51s-13.31.69-14.52-6.59c0,0-.56,12.31,9.18,10C399.69,192.84,400.41,190.51,400.41,190.51Z"/><path class="cls-16" d="M393.8,193.55s-7.46,2.44-9.22-1.61c0,0,1.23,6.75,6.78,4.49C394.74,195.05,393.8,193.55,393.8,193.55Z"/><path class="cls-18" d="M480.57,234.36c9.5,28.39,5.81,52.21-6.26,58.54-6.57,3.44-19.24,3.6-25.6-3.16-2.94-3.12-4-6.91-4.29-11.25-1.44-22.61.95-47.92,14.67-52.23C474.83,221.31,480.57,234.36,480.57,234.36Z"/><path class="cls-12" d="M479.11,276.8c-.4,3.41-3.17,5.89-6.18,5.54s-5.13-3.38-4.73-6.79,3.17-5.88,6.18-5.54S479.51,273.4,479.11,276.8Z"/><path class="cls-19" d="M445.15,257.24c-1,12.05-1.12,23.71,6.86,33.67-1-1.28-3.33-2.12-4.53-3.6a19.88,19.88,0,0,1-3.52-6.86A34.78,34.78,0,0,1,443,268C443.28,264.32,444.86,260.79,445.15,257.24Z"/><path class="cls-1" d="M436.14,185.82a4,4,0,0,1-2.75-1.09c-1.15-1.09-28.31-26.06-68.3-14.53a4,4,0,0,1-2.22-7.68c44.51-12.84,74.75,15.2,76,16.4a4,4,0,0,1-2.75,6.9Z"/><path class="cls-1" d="M540,160.06s3.89-49.91-40.82-57.87a59.63,59.63,0,0,0-24.54-13.54C410.74,72,347.71,184.09,303.72,167.45c-8.77-3.31-20.51-13.15-27.2-46,0,0-10.45-41.54,37.64-90.4S469,10.61,469,10.61,602.1,42.79,540,160.06Z"/><path class="cls-20" d="M517.65,99.06s28.23,15.85,36,56.13C553.63,155.19,558.19,108.06,517.65,99.06Z"/><path class="cls-20" d="M469,10.61s44.93,10.87,70.4,43C524.93,42,509.49,31.35,491.9,25.48c10.83,17.76,9.35,39.71,7,59.6-3.58-21.29-3.62-50.36-21.05-59.55C444,8.22,398.12,4.13,362.72,23.8c26.21-2.25,57.21-1.16,78.08,16.28-43-16.93-97.57-9.58-129.92,24.33,23.73-7.65,72.57-19.41,127.8-2.63A198.93,198.93,0,0,1,482.15,81C454.29,63,417.38,60.55,384.84,67.38c-33.83,8-69.56,22.35-103.24,12.44,5.58-14.9,15.29-33.22,32.56-48.76C373.38-22.24,464.08,8.83,469,10.61Z"/><path class="cls-21" d="M227.59,807.06s170.17,20,228.16-8.56c0,0,26.62-335.57,26.62-340.33s-61.24-23.58-61.24-23.58-4.1-25.71,8.56-39a302.86,302.86,0,0,1-109.23-51.84,12.67,12.67,0,0,0-7.71,2.57c-5,4.07-4.66,11.8-4.72,16.71-.12,10.75-4.48,21.05-6,31.7-4.9,34.4-59.32,76.19-59.32,76.19C212.76,494,191.75,571.54,227.59,807.06Z"/><path class="cls-4" d="M313.38,414.76c-1-8.68,6.57,20.55,43.56,27.95s47.67,4.11,53.42,4.11a115.93,115.93,0,0,0,12.33-.83s-.82,8.22-3.29,11.51-51-2.47-60-5.75S315.85,436.13,313.38,414.76Z"/><path class="cls-4" d="M317.49,650.64c26.3-8.22,41.09,4.93,60-6.58s39.45,12.33,69.85,10.69,28,26.3,27.13,28.76S427.62,663,386.53,661.32s-113.42,39.45-118.35,20.55S317.49,650.64,317.49,650.64Z"/><path class="cls-22" d="M529.05,451.65a24.74,24.74,0,0,1,12.18,14.22c8.49,24.45,43.66,74.12,60.92,93.41s102.56,77.16,103.57,84.27-54.83,69.05-54.83,69.05-68-30.46-114.73-95.45S529.05,451.65,529.05,451.65Z"/><path class="cls-22" d="M431.58,420.17s48.73,13.2,66,18.28a165.6,165.6,0,0,1,31.48,13.2s2,88.34-5.08,127.94S487.42,694.32,499.6,746.1s48.74,183.78,55.85,213.23,7.11,36.55,7.11,36.55S532.1,1003,515.85,1005c0,0-38.58-37.57-55.84-106.61s-41.63-153.32-32.5-212.21S431.58,420.17,431.58,420.17Z"/><path class="cls-23" d="M421.42,413.07s-7.11,26.4-5.08,62.95,10.16,158.39,8.13,186.82,1,69,1,69S444.77,675,454.93,622.23s27.41-133,27.41-133L451.88,472l21.32-8.13s-28.43-48.73-35.53-47.72S421.42,413.07,421.42,413.07Z"/><path class="cls-24" d="M24,1117l69.33-2.29,110.58,37.78s-34.73,9.38-79.56,1S24,1117,24,1117Z"/><path class="cls-6" d="M24,1117l100.35,36.49-20.85,333.61s-91.22-43-100.35-66.46S5.77,1157.37,24,1117Z"/><path class="cls-25" d="M124.36,1153.46s64.82,2.69,79.56-1l-10.14,327.12s-85.64,14.06-90.27,7.49S124.36,1153.46,124.36,1153.46Z"/><path class="cls-6" d="M93.08,1080.28s-2.67,36.37-2.67,40.11,3.74,7.49,10.16,4.81,3.21-39,3.21-39Z"/><path class="cls-26" d="M87.57,1008.2s-8.18,52.58-8.77,54.34,21.62,46.15,29.8,48.49,39.14-11.1,38.56-18.7-15.19-10.51-19.87-7.59a77.66,77.66,0,0,1-10.51,5.26l-2.34-21.62s21-32.13,21-43.82S87.57,1008.2,87.57,1008.2Z"/><path class="cls-6" d="M115,1070.52s20.2-7.37,21.61,20.45-1.26,47.07-1.26,47.07a20.39,20.39,0,0,1-15-3.75c-7.48-5.34,2.14-44.92,2.14-44.92L115,1083Z"/><path class="cls-27" d="M141.9,928.74c-.58,2.34-11.68,54.34-2.92,75.37s14,45.57,14,48.49,7.6,48.5,1.75,52.59-18.69.58-18.69-16.36-1.75-36.23-7-39.73-24-12.27-24-12.27L87.57,1008.2,94,920.56Z"/><path class="cls-22" d="M292.47,396.82s-115.75,22.34-130,30.46,38.58,43.66,33.5,116.77-2,103.56-7.1,183.78-43.66,198-34.53,269.07c0,0,38.59,12.18,45.69,4.06s33.51-71.08,34.53-87.32-14.22-54.83,16.24-99.51,66-110.67,60.92-185.81S292.47,396.82,292.47,396.82Z"/><path class="cls-23" d="M307.7,368.39S266.07,383.62,262,392.76s-5.08,39.6-18.28,49.75l35.54,8.13s-22.34,20.3-36.55,20.3A516.35,516.35,0,0,0,269.12,542c17.26,37.57,50.77,103.56,42.64,131,0,0,13.2-113.72-1-166.52S307.7,368.39,307.7,368.39Z"/><path class="cls-22" d="M162.51,427.28s-16.25,3.05-21.33,53.82S97.52,742,96.51,789.76,74.17,1006,77.22,1017.2c0,0,64-22.34,77.16,0,0,0,5.08-94.43,11.17-164.48s22.34-134,29.45-192.92S222.41,483.13,162.51,427.28Z"/><path class="cls-28" d="M616.78,604.58s-11.64-10.2-21.89,2.84c-10.09,12.84-12.56,49-6.89,66.87s23.92,28.37,23.92,28.37,34,3.64,35.66,2.43.41-58,.41-58Z"/><ellipse class="cls-16" cx="586.92" cy="599.14" rx="15.76" ry="8.09"/><path class="cls-29" d="M586.92,591.05c-8.71,0-15.76,3.62-15.76,8.09a4.57,4.57,0,0,0,.61,2.21,5.65,5.65,0,0,1,2-4.16c7-5.44,19-5.44,26-2,.56.24,1.09.5,1.61.77C599,593.05,593.39,591.05,586.92,591.05Z"/><path class="cls-30" d="M648.8,685.63s-62-31.61-72.14-41.74-34.86,2-38.91,4.46-38.91,4-44.58,2-30.4-5.68-39.31-7.3-16.21-14.18-3.24-15.81,49,.41,49,.41c3.11-6.95,7.9-17.06,14.54-28.88,9.48-16.85,14.21-25.28,19.1-27.45,15.11-6.71,28.89,16.44,67.68,36.07,39.35,19.9,62.52,15,68.5,31.2C672.53,646.94,671.14,661,648.8,685.63Z"/><path class="cls-31" d="M586.43,599.38c7.86,4.5,9.78,10.21,10.23,11.78,3.58,12.41-8.65,27.34-21.07,29.27a19.69,19.69,0,0,1-7.49-.31h-6.85c3.71,2.62,9.46,5.61,16.36,5.34,13.28-.53,25.95-12.93,30-31.05A16.84,16.84,0,0,0,603,603.66C596.46,597.05,586.94,599.26,586.43,599.38Z"/><path class="cls-32" d="M534.91,573s-34-7.3-40.52-1.62-38.1,32.82-38.91,36.47,3.65,23.1,8.1,31.61,9.33,17.43,16.62,14.19-4.46-23.51-5.67-29.59-2.84-12.56-2.84-12.56,28.37-14.59,29.59-15S534.91,573,534.91,573Z"/><path class="cls-33" d="M522.75,575s-17.42-3.24-23.1-.81S466,596.07,469.26,606.61s17,31.61,26.75,36.07,17.42,10.94,18.23,2.83-17.42-25.94-19.85-31.2-5.27-11.76-5.27-11.76l20.67-11.35Z"/><path class="cls-34" d="M532.08,569.73s-25.54.81-28,2.83-21.48,30.8-19.86,36.07,21.08,30,31.21,29.59,8.92-9.32,5.27-11.76-15.4-21.88-15.4-21.88Z"/><path class="cls-35" d="M555.58,577.83s-23.1-17.83-33.23-7.7-19.05,28.37-17,34.45.4,12.16,10.13,17.83,17.83,6.49,18.24,1.62-6.08-12.56-8.11-13-.81-12.56-.81-12.56l15.81-5.67Z"/><path class="cls-23" d="M713.84,641.52S668.15,607,609.26,600.91c0,0,49.73,92.15,24.37,99.5-21.71,6.3-27.39.63-27.39.63s44.65,18.66,61.91,26.79S725,705.49,725,705.49,738.21,663.86,713.84,641.52Z"/></g></g></g></svg>